<?xml version="1.0" encoding="UTF-8" standalone="no"?><svg xmlns="http://www.w3.org/2000/svg" xmlns:xlink="http://www.w3.org/1999/xlink" contentStyleType="text/css" height="973px" preserveAspectRatio="none" style="width:2534px;height:973px;background:#FFFFFF;" version="1.1" viewBox="0 0 2534 973" width="2534px" zoomAndPan="magnify"><defs/><g><!--cluster Entity--><g id="cluster_Entity"><path d="M143.9334,319 L193.9334,319 A3.75,3.75 0 0 1 196.4334,321.5 L203.4334,341.2969 L894.9334,341.2969 A2.5,2.5 0 0 1 897.4334,343.7969 L897.4334,963.5 A2.5,2.5 0 0 1 894.9334,966 L143.9334,966 A2.5,2.5 0 0 1 141.4334,963.5 L141.4334,321.5 A2.5,2.5 0 0 1 143.9334,319 " fill="none" style="stroke:#000000;stroke-width:1.5;"/><line style="stroke:#000000;stroke-width:1.5;" x1="141.4334" x2="203.4334" y1="341.2969" y2="341.2969"/><text fill="#000000" font-family="sans-serif" font-size="14" font-weight="bold" lengthAdjust="spacing" textLength="49" x="145.4334" y="333.9951">Entity</text></g><!--cluster Logs--><g id="cluster_Logs"><path d="M13.9334,39.5 L52.9334,39.5 A3.75,3.75 0 0 1 55.4334,42 L62.4334,61.7969 L402.9334,61.7969 A2.5,2.5 0 0 1 405.4334,64.2969 L405.4334,275 A2.5,2.5 0 0 1 402.9334,277.5 L13.9334,277.5 A2.5,2.5 0 0 1 11.4334,275 L11.4334,42 A2.5,2.5 0 0 1 13.9334,39.5 " fill="none" style="stroke:#000000;stroke-width:1.5;"/><line style="stroke:#000000;stroke-width:1.5;" x1="11.4334" x2="62.4334" y1="61.7969" y2="61.7969"/><text fill="#000000" font-family="sans-serif" font-size="14" font-weight="bold" lengthAdjust="spacing" textLength="38" x="15.4334" y="54.4951">Logs</text></g><!--cluster Schemas--><g id="cluster_Schemas"><path d="M931.9334,6 L1004.9334,6 A3.75,3.75 0 0 1 1007.4334,8.5 L1014.4334,28.2969 L1941.9334,28.2969 A2.5,2.5 0 0 1 1944.4334,30.7969 L1944.4334,551 A2.5,2.5 0 0 1 1941.9334,553.5 L931.9334,553.5 A2.5,2.5 0 0 1 929.4334,551 L929.4334,8.5 A2.5,2.5 0 0 1 931.9334,6 " fill="none" style="stroke:#000000;stroke-width:1.5;"/><line style="stroke:#000000;stroke-width:1.5;" x1="929.4334" x2="1014.4334" y1="28.2969" y2="28.2969"/><text fill="#000000" font-family="sans-serif" font-size="14" font-weight="bold" lengthAdjust="spacing" textLength="72" x="933.4334" y="20.9951">Schemas</text></g><!--cluster EnumList--><g id="cluster_EnumList"><path d="M1970.9334,63 L2046.9334,63 A3.75,3.75 0 0 1 2049.4334,65.5 L2056.4334,85.2969 L2524.9334,85.2969 A2.5,2.5 0 0 1 2527.4334,87.7969 L2527.4334,592 A2.5,2.5 0 0 1 2524.9334,594.5 L1970.9334,594.5 A2.5,2.5 0 0 1 1968.4334,592 L1968.4334,65.5 A2.5,2.5 0 0 1 1970.9334,63 " fill="none" style="stroke:#000000;stroke-width:1.5;"/><line style="stroke:#000000;stroke-width:1.5;" x1="1968.4334" x2="2056.4334" y1="85.2969" y2="85.2969"/><text fill="#000000" font-family="sans-serif" font-size="14" font-weight="bold" lengthAdjust="spacing" textLength="75" x="1972.4334" y="77.9951">EnumList</text></g><!--class pers--><g id="elem_pers"><rect codeLine="6" fill="#F1F1F1" height="253.8594" id="pers" rx="2.5" ry="2.5" style="stroke:#181818;stroke-width:0.5;" width="280" x="470.4334" y="366"/><text fill="#000000" font-family="sans-serif" font-size="14" lengthAdjust="spacing" textLength="49" x="585.9334" y="383.9951">Person</text><line style="stroke:#181818;stroke-width:0.5;" x1="471.4334" x2="749.4334" y1="392.2969" y2="392.2969"/><ellipse cx="481.4334" cy="405.9453" fill="#000000" rx="3" ry="3" style="stroke:#000000;stroke-width:1.0;"/><text fill="#000000" font-family="sans-serif" font-size="14" lengthAdjust="spacing" textLength="95" x="490.4334" y="409.292">_id : ObjectId</text><line style="stroke:#181818;stroke-width:1.0;" x1="471.4334" x2="749.4334" y1="416.5938" y2="416.5938"/><ellipse cx="481.4334" cy="430.2422" fill="#000000" rx="3" ry="3" style="stroke:#000000;stroke-width:1.0;"/><text fill="#000000" font-family="sans-serif" font-size="14" lengthAdjust="spacing" textLength="124" x="490.4334" y="433.5889">lastName : String</text><ellipse cx="481.4334" cy="446.5391" fill="#000000" rx="3" ry="3" style="stroke:#000000;stroke-width:1.0;"/><text fill="#000000" font-family="sans-serif" font-size="14" lengthAdjust="spacing" textLength="124" x="490.4334" y="449.8857">firstName :String</text><ellipse cx="481.4334" cy="462.8359" fill="#000000" rx="3" ry="3" style="stroke:#000000;stroke-width:1.0;"/><text fill="#000000" font-family="sans-serif" font-size="14" lengthAdjust="spacing" textLength="243" x="490.4334" y="466.1826">slug : String (firstName-lastName)</text><ellipse cx="481.4334" cy="479.1328" fill="#000000" rx="3" ry="3" style="stroke:#000000;stroke-width:1.0;"/><text fill="#000000" font-family="sans-serif" font-size="14" lengthAdjust="spacing" textLength="128" x="490.4334" y="482.4795">nickName : String</text><ellipse cx="481.4334" cy="495.4297" fill="#000000" rx="3" ry="3" style="stroke:#000000;stroke-width:1.0;"/><text fill="#000000" font-family="sans-serif" font-size="14" lengthAdjust="spacing" textLength="139" x="490.4334" y="498.7764">description : String</text><ellipse cx="481.4334" cy="511.7266" fill="#000000" rx="3" ry="3" style="stroke:#000000;stroke-width:1.0;"/><text fill="#000000" font-family="sans-serif" font-size="14" lengthAdjust="spacing" textLength="223" x="490.4334" y="515.0732">status : Object (StatusSchema)</text><line style="stroke:#181818;stroke-width:1.0;" x1="471.4334" x2="749.4334" y1="522.375" y2="522.375"/><ellipse cx="481.4334" cy="536.0234" fill="#000000" rx="3" ry="3" style="stroke:#000000;stroke-width:1.0;"/><text fill="#000000" font-family="sans-serif" font-size="14" lengthAdjust="spacing" textLength="96" x="490.4334" y="539.3701">occupations :</text><text fill="#000000" font-family="sans-serif" font-size="14" lengthAdjust="spacing" textLength="168" x="490.4334" y="555.667">{ occupation: ObjectId,</text><text fill="#000000" font-family="sans-serif" font-size="14" lengthAdjust="spacing" textLength="236" x="490.4334" y="571.9639">status : Object (StatusSchema) }</text><line style="stroke:#181818;stroke-width:1.0;" x1="471.4334" x2="749.4334" y1="579.2656" y2="579.2656"/><ellipse cx="481.4334" cy="592.9141" fill="#000000" rx="3" ry="3" style="stroke:#000000;stroke-width:1.0;"/><text fill="#000000" font-family="sans-serif" font-size="14" lengthAdjust="spacing" textLength="254" x="490.4334" y="596.2607">mainImage : Object (MediaSchema)</text><text fill="#000000" font-family="sans-serif" font-size="14" lengthAdjust="spacing" textLength="4" x="490.4334" y="612.5576"> </text></g><!--class taxo--><g id="elem_taxo"><rect codeLine="24" fill="#F1F1F1" height="156.375" id="taxo" rx="2.5" ry="2.5" style="stroke:#181818;stroke-width:0.5;" width="365" x="499.9334" y="734.5"/><text fill="#000000" font-family="sans-serif" font-size="14" lengthAdjust="spacing" textLength="74" x="645.4334" y="752.4951">Taxonomy</text><line style="stroke:#181818;stroke-width:0.5;" x1="500.9334" x2="863.9334" y1="760.7969" y2="760.7969"/><ellipse cx="510.9334" cy="774.4453" fill="#000000" rx="3" ry="3" style="stroke:#000000;stroke-width:1.0;"/><text fill="#000000" font-family="sans-serif" font-size="14" lengthAdjust="spacing" textLength="95" x="519.9334" y="777.792">_id : ObjectId</text><line style="stroke:#181818;stroke-width:1.0;" x1="500.9334" x2="863.9334" y1="785.0938" y2="785.0938"/><ellipse cx="510.9334" cy="798.7422" fill="#000000" rx="3" ry="3" style="stroke:#000000;stroke-width:1.0;"/><text fill="#000000" font-family="sans-serif" font-size="14" lengthAdjust="spacing" textLength="339" x="519.9334" y="802.0889">category : String (TaxonomiesCategoriesEnum)</text><ellipse cx="510.9334" cy="815.0391" fill="#000000" rx="3" ry="3" style="stroke:#000000;stroke-width:1.0;"/><text fill="#000000" font-family="sans-serif" font-size="14" lengthAdjust="spacing" textLength="97" x="519.9334" y="818.3857">name : String</text><ellipse cx="510.9334" cy="831.3359" fill="#000000" rx="3" ry="3" style="stroke:#000000;stroke-width:1.0;"/><text fill="#000000" font-family="sans-serif" font-size="14" lengthAdjust="spacing" textLength="139" x="519.9334" y="834.6826">slug : String (name)</text><ellipse cx="510.9334" cy="847.6328" fill="#000000" rx="3" ry="3" style="stroke:#000000;stroke-width:1.0;"/><text fill="#000000" font-family="sans-serif" font-size="14" lengthAdjust="spacing" textLength="139" x="519.9334" y="850.9795">description : String</text><ellipse cx="510.9334" cy="863.9297" fill="#000000" rx="3" ry="3" style="stroke:#000000;stroke-width:1.0;"/><text fill="#000000" font-family="sans-serif" font-size="14" lengthAdjust="spacing" textLength="104" x="519.9334" y="867.2764">source : String</text><ellipse cx="510.9334" cy="880.2266" fill="#000000" rx="3" ry="3" style="stroke:#000000;stroke-width:1.0;"/><text fill="#000000" font-family="sans-serif" font-size="14" lengthAdjust="spacing" textLength="223" x="519.9334" y="883.5732">status : Object (StatusSchema)</text></g><!--class org--><g id="elem_org"><rect codeLine="35" fill="#F1F1F1" height="253.8594" id="org" rx="2.5" ry="2.5" style="stroke:#181818;stroke-width:0.5;" width="267" x="181.9334" y="686"/><text fill="#000000" font-family="sans-serif" font-size="14" lengthAdjust="spacing" textLength="91" x="269.9334" y="703.9951">Organisation</text><line style="stroke:#181818;stroke-width:0.5;" x1="182.9334" x2="447.9334" y1="712.2969" y2="712.2969"/><ellipse cx="192.9334" cy="725.9453" fill="#000000" rx="3" ry="3" style="stroke:#000000;stroke-width:1.0;"/><text fill="#000000" font-family="sans-serif" font-size="14" lengthAdjust="spacing" textLength="95" x="201.9334" y="729.292">_id : ObjectId</text><line style="stroke:#181818;stroke-width:1.0;" x1="182.9334" x2="447.9334" y1="736.5938" y2="736.5938"/><ellipse cx="192.9334" cy="750.2422" fill="#000000" rx="3" ry="3" style="stroke:#000000;stroke-width:1.0;"/><text fill="#000000" font-family="sans-serif" font-size="14" lengthAdjust="spacing" textLength="97" x="201.9334" y="753.5889">name : String</text><ellipse cx="192.9334" cy="766.5391" fill="#000000" rx="3" ry="3" style="stroke:#000000;stroke-width:1.0;"/><text fill="#000000" font-family="sans-serif" font-size="14" lengthAdjust="spacing" textLength="139" x="201.9334" y="769.8857">slug : String (name)</text><ellipse cx="192.9334" cy="782.8359" fill="#000000" rx="3" ry="3" style="stroke:#000000;stroke-width:1.0;"/><text fill="#000000" font-family="sans-serif" font-size="14" lengthAdjust="spacing" textLength="139" x="201.9334" y="786.1826">description : String</text><ellipse cx="192.9334" cy="799.1328" fill="#000000" rx="3" ry="3" style="stroke:#000000;stroke-width:1.0;"/><text fill="#000000" font-family="sans-serif" font-size="14" lengthAdjust="spacing" textLength="75" x="201.9334" y="802.4795">url : String</text><ellipse cx="192.9334" cy="815.4297" fill="#000000" rx="3" ry="3" style="stroke:#000000;stroke-width:1.0;"/><text fill="#000000" font-family="sans-serif" font-size="14" lengthAdjust="spacing" textLength="151" x="201.9334" y="818.7764">contactPoint : String</text><ellipse cx="192.9334" cy="831.7266" fill="#000000" rx="3" ry="3" style="stroke:#000000;stroke-width:1.0;"/><text fill="#000000" font-family="sans-serif" font-size="14" lengthAdjust="spacing" textLength="153" x="201.9334" y="835.0732">fondationDate : Date</text><ellipse cx="192.9334" cy="848.0234" fill="#000000" rx="3" ry="3" style="stroke:#000000;stroke-width:1.0;"/><text fill="#000000" font-family="sans-serif" font-size="14" lengthAdjust="spacing" textLength="223" x="201.9334" y="851.3701">status : Object (StatusSchema)</text><line style="stroke:#181818;stroke-width:1.0;" x1="182.9334" x2="447.9334" y1="858.6719" y2="858.6719"/><ellipse cx="192.9334" cy="872.3203" fill="#000000" rx="3" ry="3" style="stroke:#000000;stroke-width:1.0;"/><text fill="#000000" font-family="sans-serif" font-size="14" lengthAdjust="spacing" textLength="241" x="201.9334" y="875.667">team : [Object (MemberSchema)]</text><line style="stroke:#181818;stroke-width:1.0;" x1="182.9334" x2="447.9334" y1="882.9688" y2="882.9688"/><ellipse cx="192.9334" cy="896.6172" fill="#000000" rx="3" ry="3" style="stroke:#000000;stroke-width:1.0;"/><text fill="#000000" font-family="sans-serif" font-size="14" lengthAdjust="spacing" textLength="52" x="201.9334" y="899.9639">offers :</text><text fill="#000000" font-family="sans-serif" font-size="14" lengthAdjust="spacing" textLength="124" x="201.9334" y="916.2607">{ offer : ObjectId</text><text fill="#000000" font-family="sans-serif" font-size="14" lengthAdjust="spacing" textLength="232" x="201.9334" y="932.5576">status : Object (StatusSchema)}</text></g><!--class usr--><g id="elem_usr"><rect codeLine="53" fill="#F1F1F1" height="188.9688" id="usr" rx="2.5" ry="2.5" style="stroke:#181818;stroke-width:0.5;" width="154" x="192.4334" y="398"/><text fill="#000000" font-family="sans-serif" font-size="14" lengthAdjust="spacing" textLength="31" x="253.9334" y="415.9951">User</text><line style="stroke:#181818;stroke-width:0.5;" x1="193.4334" x2="345.4334" y1="424.2969" y2="424.2969"/><ellipse cx="203.4334" cy="437.9453" fill="#000000" rx="3" ry="3" style="stroke:#000000;stroke-width:1.0;"/><text fill="#000000" font-family="sans-serif" font-size="14" lengthAdjust="spacing" textLength="95" x="212.4334" y="441.292">_id : ObjectId</text><line style="stroke:#181818;stroke-width:1.0;" x1="193.4334" x2="345.4334" y1="448.5938" y2="448.5938"/><ellipse cx="203.4334" cy="462.2422" fill="#000000" rx="3" ry="3" style="stroke:#000000;stroke-width:1.0;"/><text fill="#000000" font-family="sans-serif" font-size="14" lengthAdjust="spacing" textLength="127" x="212.4334" y="465.5889">username : String</text><ellipse cx="203.4334" cy="478.5391" fill="#000000" rx="3" ry="3" style="stroke:#000000;stroke-width:1.0;"/><text fill="#000000" font-family="sans-serif" font-size="14" lengthAdjust="spacing" textLength="96" x="212.4334" y="481.8857">email : String</text><ellipse cx="203.4334" cy="494.8359" fill="#000000" rx="3" ry="3" style="stroke:#000000;stroke-width:1.0;"/><text fill="#000000" font-family="sans-serif" font-size="14" lengthAdjust="spacing" textLength="124" x="212.4334" y="498.1826">password : String</text><ellipse cx="203.4334" cy="511.1328" fill="#000000" rx="3" ry="3" style="stroke:#000000;stroke-width:1.0;"/><text fill="#000000" font-family="sans-serif" font-size="14" lengthAdjust="spacing" textLength="102" x="212.4334" y="514.4795">avatar : String</text><ellipse cx="203.4334" cy="527.4297" fill="#000000" rx="3" ry="3" style="stroke:#000000;stroke-width:1.0;"/><text fill="#000000" font-family="sans-serif" font-size="14" lengthAdjust="spacing" textLength="97" x="212.4334" y="530.7764">name : String</text><ellipse cx="203.4334" cy="543.7266" fill="#000000" rx="3" ry="3" style="stroke:#000000;stroke-width:1.0;"/><text fill="#000000" font-family="sans-serif" font-size="14" lengthAdjust="spacing" textLength="128" x="212.4334" y="547.0732">firstName : String</text><ellipse cx="203.4334" cy="560.0234" fill="#000000" rx="3" ry="3" style="stroke:#000000;stroke-width:1.0;"/><text fill="#000000" font-family="sans-serif" font-size="14" lengthAdjust="spacing" textLength="124" x="212.4334" y="563.3701">lastName : String</text><ellipse cx="203.4334" cy="576.3203" fill="#000000" rx="3" ry="3" style="stroke:#000000;stroke-width:1.0;"/><text fill="#000000" font-family="sans-serif" font-size="14" lengthAdjust="spacing" textLength="85" x="212.4334" y="579.667">role : String</text></g><!--class usrhst--><g id="elem_usrhst"><rect codeLine="68" fill="#F1F1F1" height="180.6719" id="usrhst" rx="2.5" ry="2.5" style="stroke:#181818;stroke-width:0.5;" width="345" x="35.9334" y="78.5"/><text fill="#000000" font-family="sans-serif" font-size="14" lengthAdjust="spacing" textLength="82" x="167.4334" y="96.4951">UserHistory</text><line style="stroke:#181818;stroke-width:0.5;" x1="36.9334" x2="379.9334" y1="104.7969" y2="104.7969"/><ellipse cx="46.9334" cy="118.4453" fill="#000000" rx="3" ry="3" style="stroke:#000000;stroke-width:1.0;"/><text fill="#000000" font-family="sans-serif" font-size="14" lengthAdjust="spacing" textLength="95" x="55.9334" y="121.792">_id : ObjectId</text><line style="stroke:#181818;stroke-width:1.0;" x1="36.9334" x2="379.9334" y1="129.0938" y2="129.0938"/><ellipse cx="46.9334" cy="142.7422" fill="#000000" rx="3" ry="3" style="stroke:#000000;stroke-width:1.0;"/><text fill="#000000" font-family="sans-serif" font-size="14" lengthAdjust="spacing" textLength="105" x="55.9334" y="146.0889">user : ObjectId</text><line style="stroke:#181818;stroke-width:1.0;" x1="36.9334" x2="379.9334" y1="153.3906" y2="153.3906"/><ellipse cx="46.9334" cy="167.0391" fill="#000000" rx="3" ry="3" style="stroke:#000000;stroke-width:1.0;"/><text fill="#000000" font-family="sans-serif" font-size="14" lengthAdjust="spacing" textLength="128" x="55.9334" y="170.3857">ipAddress : String</text><ellipse cx="46.9334" cy="183.3359" fill="#000000" rx="3" ry="3" style="stroke:#000000;stroke-width:1.0;"/><text fill="#000000" font-family="sans-serif" font-size="14" lengthAdjust="spacing" textLength="125" x="55.9334" y="186.6826">modifDate : Date</text><ellipse cx="46.9334" cy="199.6328" fill="#000000" rx="3" ry="3" style="stroke:#000000;stroke-width:1.0;"/><text fill="#000000" font-family="sans-serif" font-size="14" lengthAdjust="spacing" textLength="319" x="55.9334" y="202.9795">action : String ["create", "update", "delete"]</text><ellipse cx="46.9334" cy="215.9297" fill="#000000" rx="3" ry="3" style="stroke:#000000;stroke-width:1.0;"/><text fill="#000000" font-family="sans-serif" font-size="14" lengthAdjust="spacing" textLength="174" x="55.9334" y="219.2764">entityCollection : String</text><ellipse cx="46.9334" cy="232.2266" fill="#000000" rx="3" ry="3" style="stroke:#000000;stroke-width:1.0;"/><text fill="#000000" font-family="sans-serif" font-size="14" lengthAdjust="spacing" textLength="183" x="55.9334" y="235.5732">modifiedEntity : ObjectId</text><ellipse cx="46.9334" cy="248.5234" fill="#000000" rx="3" ry="3" style="stroke:#000000;stroke-width:1.0;"/><text fill="#000000" font-family="sans-serif" font-size="14" lengthAdjust="spacing" textLength="101" x="55.9334" y="251.8701">fields : Object</text></g><!--class Status - StatusSchema--><g id="elem_Status - StatusSchema"><rect codeLine="83" fill="#F1F1F1" height="107.4844" id="Status - StatusSchema" rx="2.5" ry="2.5" style="stroke:#181818;stroke-width:0.5;" width="439" x="945.9334" y="114.5"/><text fill="#000000" font-family="sans-serif" font-size="14" lengthAdjust="spacing" textLength="163" x="1083.9334" y="132.4951">Status - StatusSchema</text><line style="stroke:#181818;stroke-width:0.5;" x1="946.9334" x2="1383.9334" y1="140.7969" y2="140.7969"/><ellipse cx="956.9334" cy="154.4453" fill="#000000" rx="3" ry="3" style="stroke:#000000;stroke-width:1.0;"/><text fill="#000000" font-family="sans-serif" font-size="14" lengthAdjust="spacing" textLength="413" x="965.9334" y="157.792">state : ["accepted", "rejected", "deprecated", "pending"]</text><ellipse cx="956.9334" cy="170.7422" fill="#000000" rx="3" ry="3" style="stroke:#000000;stroke-width:1.0;"/><text fill="#000000" font-family="sans-serif" font-size="14" lengthAdjust="spacing" textLength="166" x="965.9334" y="174.0889">requestedBy : ObjectId</text><ellipse cx="956.9334" cy="187.0391" fill="#000000" rx="3" ry="3" style="stroke:#000000;stroke-width:1.0;"/><text fill="#000000" font-family="sans-serif" font-size="14" lengthAdjust="spacing" textLength="181" x="965.9334" y="190.3857">lastModifiedBy : ObjectId</text><ellipse cx="956.9334" cy="203.3359" fill="#000000" rx="3" ry="3" style="stroke:#000000;stroke-width:1.0;"/><text fill="#000000" font-family="sans-serif" font-size="14" lengthAdjust="spacing" textLength="120" x="965.9334" y="206.6826">message : String</text><line style="stroke:#181818;stroke-width:0.5;" x1="946.9334" x2="1383.9334" y1="213.9844" y2="213.9844"/></g><!--class Media - MediaSchema--><g id="elem_Media - MediaSchema"><rect codeLine="90" fill="#F1F1F1" height="254.1563" id="Media - MediaSchema" rx="2.5" ry="2.5" style="stroke:#181818;stroke-width:0.5;" width="508" x="1420.4334" y="41"/><text fill="#000000" font-family="sans-serif" font-size="14" lengthAdjust="spacing" textLength="155" x="1596.9334" y="58.9951">Media - MediaSchema</text><line style="stroke:#181818;stroke-width:0.5;" x1="1421.4334" x2="1927.4334" y1="67.2969" y2="67.2969"/><ellipse cx="1431.4334" cy="80.9453" fill="#000000" rx="3" ry="3" style="stroke:#000000;stroke-width:1.0;"/><text fill="#000000" font-family="sans-serif" font-size="14" lengthAdjust="spacing" textLength="88" x="1440.4334" y="84.292">title : String</text><ellipse cx="1431.4334" cy="97.2422" fill="#000000" rx="3" ry="3" style="stroke:#000000;stroke-width:1.0;"/><text fill="#000000" font-family="sans-serif" font-size="14" lengthAdjust="spacing" textLength="76" x="1440.4334" y="100.5889">alt : String</text><ellipse cx="1431.4334" cy="113.5391" fill="#000000" rx="3" ry="3" style="stroke:#000000;stroke-width:1.0;"/><text fill="#000000" font-family="sans-serif" font-size="14" lengthAdjust="spacing" textLength="139" x="1440.4334" y="116.8857">description : String</text><ellipse cx="1431.4334" cy="129.8359" fill="#000000" rx="3" ry="3" style="stroke:#000000;stroke-width:1.0;"/><text fill="#000000" font-family="sans-serif" font-size="14" lengthAdjust="spacing" textLength="91" x="1440.4334" y="133.1826">path : String</text><ellipse cx="1431.4334" cy="146.1328" fill="#000000" rx="3" ry="3" style="stroke:#000000;stroke-width:1.0;"/><text fill="#000000" font-family="sans-serif" font-size="14" lengthAdjust="spacing" textLength="128" x="1440.4334" y="149.4795">extension : String</text><ellipse cx="1431.4334" cy="162.4297" fill="#000000" rx="3" ry="3" style="stroke:#000000;stroke-width:1.0;"/><text fill="#000000" font-family="sans-serif" font-size="14" lengthAdjust="spacing" textLength="132" x="1440.4334" y="165.7764">entityId : ObjectId</text><ellipse cx="1431.4334" cy="178.7266" fill="#000000" rx="3" ry="3" style="stroke:#000000;stroke-width:1.0;"/><text fill="#000000" font-family="sans-serif" font-size="14" lengthAdjust="spacing" textLength="137" x="1440.4334" y="182.0732">entityType : String</text><ellipse cx="1431.4334" cy="195.0234" fill="#000000" rx="3" ry="3" style="stroke:#000000;stroke-width:1.0;"/><text fill="#000000" font-family="sans-serif" font-size="14" lengthAdjust="spacing" textLength="159" x="1440.4334" y="198.3701">uploadedBy : ObjectId</text><line style="stroke:#181818;stroke-width:0.5;" x1="1421.4334" x2="1927.4334" y1="205.6719" y2="205.6719"/><ellipse cx="1431.4334" cy="219.3203" fill="#000000" rx="3" ry="3" style="stroke:#000000;stroke-width:1.0;"/><text fill="#000000" font-family="sans-serif" font-size="14" lengthAdjust="spacing" textLength="199" x="1440.4334" y="222.667">licence : String (licenceList)</text><ellipse cx="1431.4334" cy="235.6172" fill="#000000" rx="3" ry="3" style="stroke:#000000;stroke-width:1.0;"/><text fill="#000000" font-family="sans-serif" font-size="14" lengthAdjust="spacing" textLength="215" x="1440.4334" y="238.9639">fileType : String (fileTypeList)</text><text fill="#000000" font-family="sans-serif" font-size="14" lengthAdjust="spacing" textLength="482" x="1440.4334" y="255.2607">(...fileExtensionImage, ...fileExtensionVideo, ...fileExtensionSound)</text><ellipse cx="1431.4334" cy="268.2109" fill="#000000" rx="3" ry="3" style="stroke:#000000;stroke-width:1.0;"/><text fill="#000000" font-family="sans-serif" font-size="14" lengthAdjust="spacing" textLength="130" x="1440.4334" y="271.5576">slug : String (title)</text><ellipse cx="1431.4334" cy="284.5078" fill="#000000" rx="3" ry="3" style="stroke:#000000;stroke-width:1.0;"/><text fill="#000000" font-family="sans-serif" font-size="14" lengthAdjust="spacing" textLength="223" x="1440.4334" y="287.8545">status : Object (StatusSchema)</text></g><!--class Member - MemberSchema--><g id="elem_Member - MemberSchema"><rect codeLine="106" fill="#F1F1F1" height="91.1875" id="Member - MemberSchema" rx="2.5" ry="2.5" style="stroke:#181818;stroke-width:0.5;" width="249" x="1040.9334" y="446.5"/><text fill="#000000" font-family="sans-serif" font-size="14" lengthAdjust="spacing" textLength="191" x="1069.9334" y="464.4951">Member - MemberSchema</text><line style="stroke:#181818;stroke-width:0.5;" x1="1041.9334" x2="1288.9334" y1="472.7969" y2="472.7969"/><ellipse cx="1051.9334" cy="486.4453" fill="#000000" rx="3" ry="3" style="stroke:#000000;stroke-width:1.0;"/><text fill="#000000" font-family="sans-serif" font-size="14" lengthAdjust="spacing" textLength="137" x="1060.9334" y="489.792">member : ObjectId</text><line style="stroke:#181818;stroke-width:0.5;" x1="1041.9334" x2="1288.9334" y1="497.0938" y2="497.0938"/><ellipse cx="1051.9334" cy="510.7422" fill="#000000" rx="3" ry="3" style="stroke:#000000;stroke-width:1.0;"/><text fill="#000000" font-family="sans-serif" font-size="14" lengthAdjust="spacing" textLength="193" x="1060.9334" y="514.0889">role : Object (RoleSchema)</text><ellipse cx="1051.9334" cy="527.0391" fill="#000000" rx="3" ry="3" style="stroke:#000000;stroke-width:1.0;"/><text fill="#000000" font-family="sans-serif" font-size="14" lengthAdjust="spacing" textLength="223" x="1060.9334" y="530.3857">status : Object (StatusSchema)</text></g><!--class Role - RoleSchema--><g id="elem_Role - RoleSchema"><rect codeLine="112" fill="#F1F1F1" height="74.8906" id="Role - RoleSchema" rx="2.5" ry="2.5" style="stroke:#181818;stroke-width:0.5;" width="141" x="1324.9334" y="454.5"/><text fill="#000000" font-family="sans-serif" font-size="14" lengthAdjust="spacing" textLength="135" x="1327.9334" y="472.4951">Role - RoleSchema</text><line style="stroke:#181818;stroke-width:0.5;" x1="1325.9334" x2="1464.9334" y1="480.7969" y2="480.7969"/><ellipse cx="1335.9334" cy="494.4453" fill="#000000" rx="3" ry="3" style="stroke:#000000;stroke-width:1.0;"/><text fill="#000000" font-family="sans-serif" font-size="14" lengthAdjust="spacing" textLength="99" x="1344.9334" y="497.792">group : String</text><ellipse cx="1335.9334" cy="510.7422" fill="#000000" rx="3" ry="3" style="stroke:#000000;stroke-width:1.0;"/><text fill="#000000" font-family="sans-serif" font-size="14" lengthAdjust="spacing" textLength="88" x="1344.9334" y="514.0889">title : String</text><line style="stroke:#181818;stroke-width:0.5;" x1="1325.9334" x2="1464.9334" y1="521.3906" y2="521.3906"/></g><!--class TaxonomiesCategoriesEnum--><g id="elem_TaxonomiesCategoriesEnum"><rect codeLine="120" fill="#F1F1F1" height="107.4844" id="TaxonomiesCategoriesEnum" rx="2.5" ry="2.5" style="stroke:#181818;stroke-width:0.5;" width="221" x="1984.9334" y="114.5"/><text fill="#000000" font-family="sans-serif" font-size="14" lengthAdjust="spacing" textLength="204" x="1993.4334" y="132.4951">TaxonomiesCategoriesEnum</text><line style="stroke:#181818;stroke-width:0.5;" x1="1985.9334" x2="2204.9334" y1="140.7969" y2="140.7969"/><text fill="#000000" font-family="sans-serif" font-size="14" lengthAdjust="spacing" textLength="209" x="1990.9334" y="157.792">Occupations = "occupations"</text><text fill="#000000" font-family="sans-serif" font-size="14" lengthAdjust="spacing" textLength="155" x="1990.9334" y="174.0889">Domains = "domains"</text><text fill="#000000" font-family="sans-serif" font-size="14" lengthAdjust="spacing" textLength="149" x="1990.9334" y="190.3857">Abilities = "abilities"</text><text fill="#000000" font-family="sans-serif" font-size="14" lengthAdjust="spacing" textLength="105" x="1990.9334" y="206.6826">Skills = "skills"</text><line style="stroke:#181818;stroke-width:0.5;" x1="1985.9334" x2="2204.9334" y1="213.9844" y2="213.9844"/></g><!--class fileTypeList--><g id="elem_fileTypeList"><rect codeLine="127" fill="#F1F1F1" height="91.1875" id="fileTypeList" rx="2.5" ry="2.5" style="stroke:#181818;stroke-width:0.5;" width="91" x="2240.9334" y="122.5"/><text fill="#000000" font-family="sans-serif" font-size="14" lengthAdjust="spacing" textLength="85" x="2243.9334" y="140.4951">fileTypeList</text><line style="stroke:#181818;stroke-width:0.5;" x1="2241.9334" x2="2330.9334" y1="148.7969" y2="148.7969"/><text fill="#000000" font-family="sans-serif" font-size="14" lengthAdjust="spacing" textLength="44" x="2246.9334" y="165.792">image</text><text fill="#000000" font-family="sans-serif" font-size="14" lengthAdjust="spacing" textLength="39" x="2246.9334" y="182.0889">video</text><text fill="#000000" font-family="sans-serif" font-size="14" lengthAdjust="spacing" textLength="42" x="2246.9334" y="198.3857">sound</text><line style="stroke:#181818;stroke-width:0.5;" x1="2241.9334" x2="2330.9334" y1="205.6875" y2="205.6875"/></g><!--class fileExtensionImage--><g id="elem_fileExtensionImage"><rect codeLine="133" fill="#F1F1F1" height="140.0781" id="fileExtensionImage" rx="2.5" ry="2.5" style="stroke:#181818;stroke-width:0.5;" width="144" x="2367.4334" y="98"/><text fill="#000000" font-family="sans-serif" font-size="14" lengthAdjust="spacing" textLength="138" x="2370.4334" y="115.9951">fileExtensionImage</text><line style="stroke:#181818;stroke-width:0.5;" x1="2368.4334" x2="2510.4334" y1="124.2969" y2="124.2969"/><text fill="#000000" font-family="sans-serif" font-size="14" lengthAdjust="spacing" textLength="28" x="2373.4334" y="141.292">png</text><text fill="#000000" font-family="sans-serif" font-size="14" lengthAdjust="spacing" textLength="23" x="2373.4334" y="157.5889">jpg</text><text fill="#000000" font-family="sans-serif" font-size="14" lengthAdjust="spacing" textLength="32" x="2373.4334" y="173.8857">jpeg</text><text fill="#000000" font-family="sans-serif" font-size="14" lengthAdjust="spacing" textLength="19" x="2373.4334" y="190.1826">gif</text><text fill="#000000" font-family="sans-serif" font-size="14" lengthAdjust="spacing" textLength="24" x="2373.4334" y="206.4795">svg</text><text fill="#000000" font-family="sans-serif" font-size="14" lengthAdjust="spacing" textLength="40" x="2373.4334" y="222.7764">webp</text><line style="stroke:#181818;stroke-width:0.5;" x1="2368.4334" x2="2510.4334" y1="230.0781" y2="230.0781"/></g><!--class fileExtensionVideo--><g id="elem_fileExtensionVideo"><rect codeLine="142" fill="#F1F1F1" height="58.5938" id="fileExtensionVideo" rx="2.5" ry="2.5" style="stroke:#181818;stroke-width:0.5;" width="141" x="1997.9334" y="462.5"/><text fill="#000000" font-family="sans-serif" font-size="14" lengthAdjust="spacing" textLength="135" x="2000.9334" y="480.4951">fileExtensionVideo</text><line style="stroke:#181818;stroke-width:0.5;" x1="1998.9334" x2="2137.9334" y1="488.7969" y2="488.7969"/><text fill="#000000" font-family="sans-serif" font-size="14" lengthAdjust="spacing" textLength="32" x="2003.9334" y="505.792">mp4</text><line style="stroke:#181818;stroke-width:0.5;" x1="1998.9334" x2="2137.9334" y1="513.0938" y2="513.0938"/></g><!--class fileExtensionSound--><g id="elem_fileExtensionSound"><rect codeLine="146" fill="#F1F1F1" height="74.8906" id="fileExtensionSound" rx="2.5" ry="2.5" style="stroke:#181818;stroke-width:0.5;" width="144" x="2174.4334" y="454.5"/><text fill="#000000" font-family="sans-serif" font-size="14" lengthAdjust="spacing" textLength="138" x="2177.4334" y="472.4951">fileExtensionSound</text><line style="stroke:#181818;stroke-width:0.5;" x1="2175.4334" x2="2317.4334" y1="480.7969" y2="480.7969"/><text fill="#000000" font-family="sans-serif" font-size="14" lengthAdjust="spacing" textLength="27" x="2180.4334" y="497.792">wav</text><text fill="#000000" font-family="sans-serif" font-size="14" lengthAdjust="spacing" textLength="33" x="2180.4334" y="514.0889">mp3</text><line style="stroke:#181818;stroke-width:0.5;" x1="2175.4334" x2="2317.4334" y1="521.3906" y2="521.3906"/></g><!--class licenceList--><g id="elem_licenceList"><rect codeLine="151" fill="#F1F1F1" height="172.6719" id="licenceList" rx="2.5" ry="2.5" style="stroke:#181818;stroke-width:0.5;" width="157" x="2353.9334" y="405.5"/><text fill="#000000" font-family="sans-serif" font-size="14" lengthAdjust="spacing" textLength="77" x="2393.9334" y="423.4951">licenceList</text><line style="stroke:#181818;stroke-width:0.5;" x1="2354.9334" x2="2509.9334" y1="431.7969" y2="431.7969"/><text fill="#000000" font-family="sans-serif" font-size="14" lengthAdjust="spacing" textLength="42" x="2359.9334" y="448.792">CC By</text><text fill="#000000" font-family="sans-serif" font-size="14" lengthAdjust="spacing" textLength="67" x="2359.9334" y="465.0889">CC By-SA</text><text fill="#000000" font-family="sans-serif" font-size="14" lengthAdjust="spacing" textLength="69" x="2359.9334" y="481.3857">CC By-ND</text><text fill="#000000" font-family="sans-serif" font-size="14" lengthAdjust="spacing" textLength="68" x="2359.9334" y="497.6826">CC By-NC</text><text fill="#000000" font-family="sans-serif" font-size="14" lengthAdjust="spacing" textLength="93" x="2359.9334" y="513.9795">CC By-NC-SA</text><text fill="#000000" font-family="sans-serif" font-size="14" lengthAdjust="spacing" textLength="95" x="2359.9334" y="530.2764">CC By-NC-ND</text><text fill="#000000" font-family="sans-serif" font-size="14" lengthAdjust="spacing" textLength="126" x="2359.9334" y="546.5732">Copyright to user</text><line style="stroke:#181818;stroke-width:0.5;" x1="2354.9334" x2="2509.9334" y1="553.875" y2="553.875"/><text fill="#000000" font-family="sans-serif" font-size="14" lengthAdjust="spacing" textLength="145" x="2359.9334" y="570.8701">Public Domain (CC0)</text></g><!--reverse link pers to taxo--><g id="link_pers_taxo"><path codeLine="164" d="M764.2424,535.781 C785.9754,547.48 769.4124,593.424 750.4334,622 C683.4194,722.897 568.0664,630.017 500.4334,730.5 C489.8834,746.174 480.5394,773 499.4334,773 " fill="none" id="pers-backto-taxo" style="stroke:#181818;stroke-width:1.0;"/><polygon fill="none" points="751.4334,533,756.4486,538.1815,763.1604,535.545,758.1453,530.3635,751.4334,533" style="stroke:#181818;stroke-width:1.0;"/></g><!--reverse link org to taxo--><g id="link_org_taxo"><path codeLine="165" d="M450.4334,894 C508.4534,894 441.4134,773 499.4334,773 " fill="none" id="org-backto-taxo" style="stroke:#181818;stroke-width:1.0;"/><polygon fill="none" points="450.4334,894,456.4334,898,462.4334,894,456.4334,890,450.4334,894" style="stroke:#181818;stroke-width:1.0;"/></g><!--reverse link usrhst to usr--><g id="link_usrhst_usr"><path codeLine="166" d="M395.3754,142.846 C430.4744,154.479 404.0114,218.535 381.4334,261.5 C333.7134,352.311 240.8564,303.561 192.4334,394 C183.6194,410.461 172.7614,436 191.4334,436 " fill="none" id="usrhst-backto-usr" style="stroke:#181818;stroke-width:1.0;"/><polygon fill="#181818" points="382.4334,141,387.8085,145.8072,394.3132,142.6945,388.9381,137.8873,382.4334,141" style="stroke:#181818;stroke-width:1.0;"/></g><!--link Entity to usrhst--><g id="link_Entity_usrhst"><path codeLine="167" d="M141.2205,481.8965 C140.5308,481.1226 139.8028,480.3037 139.0385,479.4416 C132.9244,472.5446 124.4893,462.882 114.7621,451.3375 C95.3076,428.2484 70.6845,397.6314 49.123,366.5555 C6,304.4038 23.4791,231.0458 23.4791,231.0458 " fill="none" id="Entity-usrhst" style="stroke:#181818;stroke-width:1.0;"/><polygon fill="#181818" points="141.2205,481.8965,138.219,472.5162,137.894,478.1637,132.2465,477.8387,141.2205,481.8965" style="stroke:#181818;stroke-width:1.0;"/><polygon fill="#181818" points="35.4334,230,29.1076,226.5381,23.4791,231.0458,29.8048,234.5077,35.4334,230" style="stroke:#181818;stroke-width:1.0;"/></g><!--reverse link pers to org--><g id="link_pers_org"><path codeLine="168" d="M459.4694,412.486 C430.2934,475.645 498.1044,870 450.4334,870 " fill="none" id="pers-backto-org" style="stroke:#181818;stroke-width:1.0;"/><polygon fill="none" points="469.4334,404,462.272,404.8448,460.2974,411.7804,467.4589,410.9355,469.4334,404" style="stroke:#181818;stroke-width:1.0;"/></g><!--SRC=[hLTHRziu37xFhn3yqgHN5mFkdW9iG9SMM85sBIxRNehYe5YCerMMV9ASB1ZwtqT9TYmhMIu5hWyfHL8I-UaJAPyzIF9jFbCCBaYjmHXo9IpvWrmJguXPgOtJhZbiY5gIMb1flzxVZKQZ5MT02guB0QEQ5Y-q178ZBRTRydD420GnUmHjbCm8DQH6qTi8EV-7Cp8b3ullKDXRvdLv7ao26lkPLe3skTLSba6zvBhJnseZcdBdISOxhxnRPXBy92zU3gpAm1IQrvOhcLYCfROnko39UEuLys855PqC8bP5qTJKhU7ylSxz_IIzeS_rOcS_lWDv7UnHKIvlAmToxtyFZDCu8Fnv7KNWVw4_b5JLriDlSN02_0MrK2gzZK1jb-5WPi68qerigWxQVLYJKv7zEHm1N3MwWBUUmY3V1rrIoOr7tEUiT7b2olzJ0eqMYQPGqjB2FYekRKfd9PcFyneXHPlxzsRYMQ0LEZxrXAWMe5lFvo57bqjt_ORqTBeKbFzcvciA-rS3siFT67q2t0sw7u0Sb-OfW3KrPgCqIzHqJItLYL8UhHa3_MzAZ5PYe7eTOPfTRRjJfHbKDfVr9suitfKk-PMn9-R_EnklhnZpLNWOMgKON-vH1RaLqv0yPOK6j6ON96jgraeC1A3qtCBimvyf8Q0uG6A_4GVMbl8aJ4GK1EkPaO8K63B4AN27v2GcKTRXvAZcadhAQ550RO6va3MurOFC01kGgqf-L8Da66oNZOP_6p1e-xWVgplb-pQT0-OAKGxrD3hmA6vVNJ7igChkeaOFaRA72djoSy6ci4evoGkGKVqZurPpXnoRTEWB-BAjOT3mWYhoWXyMfDdRT7nvUUcyRpgpRoSN95L_myQkzjLprKWsELWTFHgJc5wtU-Hl3OFes-jG2qNPmIDwM_KFrS-VM5y6TqTM1MkwHNldkmt-nc5SQTyOWfkE0VIhxBOljMhg9FCz5WtkakkmxbHnXVsMljUBkuqUehV8Uv95JvFCsw-LUqbu6mjYq5yjkE0M5tCMsWs2RVx2XV06uwKiJJicOHS88TpngvNNZbIjR1oJ3YqnP6Q_KDq2HiZtkfUW4qk-x5PUTxeDBEgZMtYMzrjKzLz7tJtxU_SDNUyc_fbEZEvjD-EnMQ2s1P-CPxDtWLwp6VcuxQLyVXKDFb_7WzbWa7ZETiwgtcfUhgnxlRj6qx7gJ8C8F1YvT_Xq6ZzQLQvp_pwSJh5lZV3LXFRmO4XCeSbDfxw7dUUvwtf3Iz90pdEHVsW_3DgTNMjKEDLluvum6DsjN7F35tWT19Sl1kkQqXN5YdRclnho9_pSO22VcP-MQhMFunS0]--></g></svg>