<?xml version="1.0" encoding="us-ascii" standalone="no"?><svg xmlns="http://www.w3.org/2000/svg" xmlns:xlink="http://www.w3.org/1999/xlink" contentStyleType="text/css" height="975px" preserveAspectRatio="none" style="width:2579px;height:975px;background:#FFFFFF;" version="1.1" viewBox="0 0 2579 975" width="2579px" zoomAndPan="magnify"><defs/><g><!--cluster Entity--><g id="cluster_Entity"><path d="M189.3978,319 L239.3978,319 A3.75,3.75 0 0 1 241.8978,321.5 L248.8978,341.2969 L940.3978,341.2969 A2.5,2.5 0 0 1 942.8978,343.7969 L942.8978,965.5 A2.5,2.5 0 0 1 940.3978,968 L189.3978,968 A2.5,2.5 0 0 1 186.8978,965.5 L186.8978,321.5 A2.5,2.5 0 0 1 189.3978,319 " fill="none" style="stroke:#000000;stroke-width:1.5;"/><line style="stroke:#000000;stroke-width:1.5;" x1="186.8978" x2="248.8978" y1="341.2969" y2="341.2969"/><text fill="#000000" font-family="sans-serif" font-size="14" font-weight="bold" lengthAdjust="spacing" textLength="49" x="190.8978" y="333.9951">Entity</text></g><!--cluster Logs--><g id="cluster_Logs"><path d="M59.3978,39 L98.3978,39 A3.75,3.75 0 0 1 100.8978,41.5 L107.8978,61.2969 L448.3978,61.2969 A2.5,2.5 0 0 1 450.8978,63.7969 L450.8978,275.5 A2.5,2.5 0 0 1 448.3978,278 L59.3978,278 A2.5,2.5 0 0 1 56.8978,275.5 L56.8978,41.5 A2.5,2.5 0 0 1 59.3978,39 " fill="none" style="stroke:#000000;stroke-width:1.5;"/><line style="stroke:#000000;stroke-width:1.5;" x1="56.8978" x2="107.8978" y1="61.2969" y2="61.2969"/><text fill="#000000" font-family="sans-serif" font-size="14" font-weight="bold" lengthAdjust="spacing" textLength="38" x="60.8978" y="53.9951">Logs</text></g><!--cluster Schemas--><g id="cluster_Schemas"><path d="M977.3978,6 L1050.3978,6 A3.75,3.75 0 0 1 1052.8978,8.5 L1059.8978,28.2969 L1987.3978,28.2969 A2.5,2.5 0 0 1 1989.8978,30.7969 L1989.8978,551.5 A2.5,2.5 0 0 1 1987.3978,554 L977.3978,554 A2.5,2.5 0 0 1 974.8978,551.5 L974.8978,8.5 A2.5,2.5 0 0 1 977.3978,6 " fill="none" style="stroke:#000000;stroke-width:1.5;"/><line style="stroke:#000000;stroke-width:1.5;" x1="974.8978" x2="1059.8978" y1="28.2969" y2="28.2969"/><text fill="#000000" font-family="sans-serif" font-size="14" font-weight="bold" lengthAdjust="spacing" textLength="72" x="978.8978" y="20.9951">Schemas</text></g><!--cluster EnumList--><g id="cluster_EnumList"><path d="M2016.3978,63 L2092.3978,63 A3.75,3.75 0 0 1 2094.8978,65.5 L2101.8978,85.2969 L2570.3978,85.2969 A2.5,2.5 0 0 1 2572.8978,87.7969 L2572.8978,592.5 A2.5,2.5 0 0 1 2570.3978,595 L2016.3978,595 A2.5,2.5 0 0 1 2013.8978,592.5 L2013.8978,65.5 A2.5,2.5 0 0 1 2016.3978,63 " fill="none" style="stroke:#000000;stroke-width:1.5;"/><line style="stroke:#000000;stroke-width:1.5;" x1="2013.8978" x2="2101.8978" y1="85.2969" y2="85.2969"/><text fill="#000000" font-family="sans-serif" font-size="14" font-weight="bold" lengthAdjust="spacing" textLength="75" x="2017.8978" y="77.9951">EnumList</text></g><!--class pers--><g id="elem_pers"><rect codeLine="6" fill="#F1F1F1" height="253.8594" id="pers" rx="2.5" ry="2.5" style="stroke:#181818;stroke-width:0.5;" width="280" x="515.8978" y="366"/><text fill="#000000" font-family="sans-serif" font-size="14" lengthAdjust="spacing" textLength="49" x="631.3978" y="383.9951">Person</text><line style="stroke:#181818;stroke-width:0.5;" x1="516.8978" x2="794.8978" y1="392.2969" y2="392.2969"/><ellipse cx="526.8978" cy="405.9453" fill="#000000" rx="3" ry="3" style="stroke:#000000;stroke-width:1.0;"/><text fill="#000000" font-family="sans-serif" font-size="14" lengthAdjust="spacing" textLength="95" x="535.8978" y="409.292">_id : ObjectId</text><line style="stroke:#181818;stroke-width:1.0;" x1="516.8978" x2="794.8978" y1="416.5938" y2="416.5938"/><ellipse cx="526.8978" cy="430.2422" fill="#000000" rx="3" ry="3" style="stroke:#000000;stroke-width:1.0;"/><text fill="#000000" font-family="sans-serif" font-size="14" lengthAdjust="spacing" textLength="124" x="535.8978" y="433.5889">lastName : String</text><ellipse cx="526.8978" cy="446.5391" fill="#000000" rx="3" ry="3" style="stroke:#000000;stroke-width:1.0;"/><text fill="#000000" font-family="sans-serif" font-size="14" lengthAdjust="spacing" textLength="124" x="535.8978" y="449.8857">firstName :String</text><ellipse cx="526.8978" cy="462.8359" fill="#000000" rx="3" ry="3" style="stroke:#000000;stroke-width:1.0;"/><text fill="#000000" font-family="sans-serif" font-size="14" lengthAdjust="spacing" textLength="243" x="535.8978" y="466.1826">slug : String (firstName-lastName)</text><ellipse cx="526.8978" cy="479.1328" fill="#000000" rx="3" ry="3" style="stroke:#000000;stroke-width:1.0;"/><text fill="#000000" font-family="sans-serif" font-size="14" lengthAdjust="spacing" textLength="128" x="535.8978" y="482.4795">nickName : String</text><ellipse cx="526.8978" cy="495.4297" fill="#000000" rx="3" ry="3" style="stroke:#000000;stroke-width:1.0;"/><text fill="#000000" font-family="sans-serif" font-size="14" lengthAdjust="spacing" textLength="139" x="535.8978" y="498.7764">description : String</text><ellipse cx="526.8978" cy="511.7266" fill="#000000" rx="3" ry="3" style="stroke:#000000;stroke-width:1.0;"/><text fill="#000000" font-family="sans-serif" font-size="14" lengthAdjust="spacing" textLength="223" x="535.8978" y="515.0732">status : Object (StatusSchema)</text><line style="stroke:#181818;stroke-width:1.0;" x1="516.8978" x2="794.8978" y1="522.375" y2="522.375"/><ellipse cx="526.8978" cy="536.0234" fill="#000000" rx="3" ry="3" style="stroke:#000000;stroke-width:1.0;"/><text fill="#000000" font-family="sans-serif" font-size="14" lengthAdjust="spacing" textLength="96" x="535.8978" y="539.3701">occupations :</text><text fill="#000000" font-family="sans-serif" font-size="14" lengthAdjust="spacing" textLength="168" x="535.8978" y="555.667">{ occupation: ObjectId,</text><text fill="#000000" font-family="sans-serif" font-size="14" lengthAdjust="spacing" textLength="236" x="535.8978" y="571.9639">status : Object (StatusSchema) }</text><line style="stroke:#181818;stroke-width:1.0;" x1="516.8978" x2="794.8978" y1="579.2656" y2="579.2656"/><ellipse cx="526.8978" cy="592.9141" fill="#000000" rx="3" ry="3" style="stroke:#000000;stroke-width:1.0;"/><text fill="#000000" font-family="sans-serif" font-size="14" lengthAdjust="spacing" textLength="254" x="535.8978" y="596.2607">mainImage : Object (MediaSchema)</text><text fill="#000000" font-family="sans-serif" font-size="14" lengthAdjust="spacing" textLength="4" x="535.8978" y="612.5576">&#160;</text></g><!--class taxo--><g id="elem_taxo"><rect codeLine="24" fill="#F1F1F1" height="156.375" id="taxo" rx="2.5" ry="2.5" style="stroke:#181818;stroke-width:0.5;" width="365" x="545.3978" y="735.5"/><text fill="#000000" font-family="sans-serif" font-size="14" lengthAdjust="spacing" textLength="74" x="690.8978" y="753.4951">Taxonomy</text><line style="stroke:#181818;stroke-width:0.5;" x1="546.3978" x2="909.3978" y1="761.7969" y2="761.7969"/><ellipse cx="556.3978" cy="775.4453" fill="#000000" rx="3" ry="3" style="stroke:#000000;stroke-width:1.0;"/><text fill="#000000" font-family="sans-serif" font-size="14" lengthAdjust="spacing" textLength="95" x="565.3978" y="778.792">_id : ObjectId</text><line style="stroke:#181818;stroke-width:1.0;" x1="546.3978" x2="909.3978" y1="786.0938" y2="786.0938"/><ellipse cx="556.3978" cy="799.7422" fill="#000000" rx="3" ry="3" style="stroke:#000000;stroke-width:1.0;"/><text fill="#000000" font-family="sans-serif" font-size="14" lengthAdjust="spacing" textLength="339" x="565.3978" y="803.0889">category : String (TaxonomiesCategoriesEnum)</text><ellipse cx="556.3978" cy="816.0391" fill="#000000" rx="3" ry="3" style="stroke:#000000;stroke-width:1.0;"/><text fill="#000000" font-family="sans-serif" font-size="14" lengthAdjust="spacing" textLength="97" x="565.3978" y="819.3857">name : String</text><ellipse cx="556.3978" cy="832.3359" fill="#000000" rx="3" ry="3" style="stroke:#000000;stroke-width:1.0;"/><text fill="#000000" font-family="sans-serif" font-size="14" lengthAdjust="spacing" textLength="139" x="565.3978" y="835.6826">slug : String (name)</text><ellipse cx="556.3978" cy="848.6328" fill="#000000" rx="3" ry="3" style="stroke:#000000;stroke-width:1.0;"/><text fill="#000000" font-family="sans-serif" font-size="14" lengthAdjust="spacing" textLength="139" x="565.3978" y="851.9795">description : String</text><ellipse cx="556.3978" cy="864.9297" fill="#000000" rx="3" ry="3" style="stroke:#000000;stroke-width:1.0;"/><text fill="#000000" font-family="sans-serif" font-size="14" lengthAdjust="spacing" textLength="104" x="565.3978" y="868.2764">source : String</text><ellipse cx="556.3978" cy="881.2266" fill="#000000" rx="3" ry="3" style="stroke:#000000;stroke-width:1.0;"/><text fill="#000000" font-family="sans-serif" font-size="14" lengthAdjust="spacing" textLength="223" x="565.3978" y="884.5732">status : Object (StatusSchema)</text></g><!--class org--><g id="elem_org"><rect codeLine="35" fill="#F1F1F1" height="253.8594" id="org" rx="2.5" ry="2.5" style="stroke:#181818;stroke-width:0.5;" width="267" x="227.3978" y="687"/><text fill="#000000" font-family="sans-serif" font-size="14" lengthAdjust="spacing" textLength="91" x="315.3978" y="704.9951">Organisation</text><line style="stroke:#181818;stroke-width:0.5;" x1="228.3978" x2="493.3978" y1="713.2969" y2="713.2969"/><ellipse cx="238.3978" cy="726.9453" fill="#000000" rx="3" ry="3" style="stroke:#000000;stroke-width:1.0;"/><text fill="#000000" font-family="sans-serif" font-size="14" lengthAdjust="spacing" textLength="95" x="247.3978" y="730.292">_id : ObjectId</text><line style="stroke:#181818;stroke-width:1.0;" x1="228.3978" x2="493.3978" y1="737.5938" y2="737.5938"/><ellipse cx="238.3978" cy="751.2422" fill="#000000" rx="3" ry="3" style="stroke:#000000;stroke-width:1.0;"/><text fill="#000000" font-family="sans-serif" font-size="14" lengthAdjust="spacing" textLength="97" x="247.3978" y="754.5889">name : String</text><ellipse cx="238.3978" cy="767.5391" fill="#000000" rx="3" ry="3" style="stroke:#000000;stroke-width:1.0;"/><text fill="#000000" font-family="sans-serif" font-size="14" lengthAdjust="spacing" textLength="139" x="247.3978" y="770.8857">slug : String (name)</text><ellipse cx="238.3978" cy="783.8359" fill="#000000" rx="3" ry="3" style="stroke:#000000;stroke-width:1.0;"/><text fill="#000000" font-family="sans-serif" font-size="14" lengthAdjust="spacing" textLength="139" x="247.3978" y="787.1826">description : String</text><ellipse cx="238.3978" cy="800.1328" fill="#000000" rx="3" ry="3" style="stroke:#000000;stroke-width:1.0;"/><text fill="#000000" font-family="sans-serif" font-size="14" lengthAdjust="spacing" textLength="75" x="247.3978" y="803.4795">url : String</text><ellipse cx="238.3978" cy="816.4297" fill="#000000" rx="3" ry="3" style="stroke:#000000;stroke-width:1.0;"/><text fill="#000000" font-family="sans-serif" font-size="14" lengthAdjust="spacing" textLength="151" x="247.3978" y="819.7764">contactPoint : String</text><ellipse cx="238.3978" cy="832.7266" fill="#000000" rx="3" ry="3" style="stroke:#000000;stroke-width:1.0;"/><text fill="#000000" font-family="sans-serif" font-size="14" lengthAdjust="spacing" textLength="153" x="247.3978" y="836.0732">fondationDate : Date</text><ellipse cx="238.3978" cy="849.0234" fill="#000000" rx="3" ry="3" style="stroke:#000000;stroke-width:1.0;"/><text fill="#000000" font-family="sans-serif" font-size="14" lengthAdjust="spacing" textLength="223" x="247.3978" y="852.3701">status : Object (StatusSchema)</text><line style="stroke:#181818;stroke-width:1.0;" x1="228.3978" x2="493.3978" y1="859.6719" y2="859.6719"/><ellipse cx="238.3978" cy="873.3203" fill="#000000" rx="3" ry="3" style="stroke:#000000;stroke-width:1.0;"/><text fill="#000000" font-family="sans-serif" font-size="14" lengthAdjust="spacing" textLength="241" x="247.3978" y="876.667">team : [Object (MemberSchema)]</text><line style="stroke:#181818;stroke-width:1.0;" x1="228.3978" x2="493.3978" y1="883.9688" y2="883.9688"/><ellipse cx="238.3978" cy="897.6172" fill="#000000" rx="3" ry="3" style="stroke:#000000;stroke-width:1.0;"/><text fill="#000000" font-family="sans-serif" font-size="14" lengthAdjust="spacing" textLength="52" x="247.3978" y="900.9639">offers :</text><text fill="#000000" font-family="sans-serif" font-size="14" lengthAdjust="spacing" textLength="124" x="247.3978" y="917.2607">{ offer : ObjectId</text><text fill="#000000" font-family="sans-serif" font-size="14" lengthAdjust="spacing" textLength="232" x="247.3978" y="933.5576">status : Object (StatusSchema)}</text></g><!--class usr--><g id="elem_usr"><rect codeLine="53" fill="#F1F1F1" height="188.9688" id="usr" rx="2.5" ry="2.5" style="stroke:#181818;stroke-width:0.5;" width="154" x="237.8978" y="398.5"/><text fill="#000000" font-family="sans-serif" font-size="14" lengthAdjust="spacing" textLength="31" x="299.3978" y="416.4951">User</text><line style="stroke:#181818;stroke-width:0.5;" x1="238.8978" x2="390.8978" y1="424.7969" y2="424.7969"/><ellipse cx="248.8978" cy="438.4453" fill="#000000" rx="3" ry="3" style="stroke:#000000;stroke-width:1.0;"/><text fill="#000000" font-family="sans-serif" font-size="14" lengthAdjust="spacing" textLength="95" x="257.8978" y="441.792">_id : ObjectId</text><line style="stroke:#181818;stroke-width:1.0;" x1="238.8978" x2="390.8978" y1="449.0938" y2="449.0938"/><ellipse cx="248.8978" cy="462.7422" fill="#000000" rx="3" ry="3" style="stroke:#000000;stroke-width:1.0;"/><text fill="#000000" font-family="sans-serif" font-size="14" lengthAdjust="spacing" textLength="127" x="257.8978" y="466.0889">username : String</text><ellipse cx="248.8978" cy="479.0391" fill="#000000" rx="3" ry="3" style="stroke:#000000;stroke-width:1.0;"/><text fill="#000000" font-family="sans-serif" font-size="14" lengthAdjust="spacing" textLength="96" x="257.8978" y="482.3857">email : String</text><ellipse cx="248.8978" cy="495.3359" fill="#000000" rx="3" ry="3" style="stroke:#000000;stroke-width:1.0;"/><text fill="#000000" font-family="sans-serif" font-size="14" lengthAdjust="spacing" textLength="124" x="257.8978" y="498.6826">password : String</text><ellipse cx="248.8978" cy="511.6328" fill="#000000" rx="3" ry="3" style="stroke:#000000;stroke-width:1.0;"/><text fill="#000000" font-family="sans-serif" font-size="14" lengthAdjust="spacing" textLength="102" x="257.8978" y="514.9795">avatar : String</text><ellipse cx="248.8978" cy="527.9297" fill="#000000" rx="3" ry="3" style="stroke:#000000;stroke-width:1.0;"/><text fill="#000000" font-family="sans-serif" font-size="14" lengthAdjust="spacing" textLength="97" x="257.8978" y="531.2764">name : String</text><ellipse cx="248.8978" cy="544.2266" fill="#000000" rx="3" ry="3" style="stroke:#000000;stroke-width:1.0;"/><text fill="#000000" font-family="sans-serif" font-size="14" lengthAdjust="spacing" textLength="128" x="257.8978" y="547.5732">firstName : String</text><ellipse cx="248.8978" cy="560.5234" fill="#000000" rx="3" ry="3" style="stroke:#000000;stroke-width:1.0;"/><text fill="#000000" font-family="sans-serif" font-size="14" lengthAdjust="spacing" textLength="124" x="257.8978" y="563.8701">lastName : String</text><ellipse cx="248.8978" cy="576.8203" fill="#000000" rx="3" ry="3" style="stroke:#000000;stroke-width:1.0;"/><text fill="#000000" font-family="sans-serif" font-size="14" lengthAdjust="spacing" textLength="85" x="257.8978" y="580.167">role : String</text></g><!--class usrhst--><g id="elem_usrhst"><rect codeLine="68" fill="#F1F1F1" height="180.6719" id="usrhst" rx="2.5" ry="2.5" style="stroke:#181818;stroke-width:0.5;" width="345" x="81.3978" y="78"/><text fill="#000000" font-family="sans-serif" font-size="14" lengthAdjust="spacing" textLength="82" x="212.8978" y="95.9951">UserHistory</text><line style="stroke:#181818;stroke-width:0.5;" x1="82.3978" x2="425.3978" y1="104.2969" y2="104.2969"/><ellipse cx="92.3978" cy="117.9453" fill="#000000" rx="3" ry="3" style="stroke:#000000;stroke-width:1.0;"/><text fill="#000000" font-family="sans-serif" font-size="14" lengthAdjust="spacing" textLength="95" x="101.3978" y="121.292">_id : ObjectId</text><line style="stroke:#181818;stroke-width:1.0;" x1="82.3978" x2="425.3978" y1="128.5938" y2="128.5938"/><ellipse cx="92.3978" cy="142.2422" fill="#000000" rx="3" ry="3" style="stroke:#000000;stroke-width:1.0;"/><text fill="#000000" font-family="sans-serif" font-size="14" lengthAdjust="spacing" textLength="105" x="101.3978" y="145.5889">user : ObjectId</text><line style="stroke:#181818;stroke-width:1.0;" x1="82.3978" x2="425.3978" y1="152.8906" y2="152.8906"/><ellipse cx="92.3978" cy="166.5391" fill="#000000" rx="3" ry="3" style="stroke:#000000;stroke-width:1.0;"/><text fill="#000000" font-family="sans-serif" font-size="14" lengthAdjust="spacing" textLength="128" x="101.3978" y="169.8857">ipAddress : String</text><ellipse cx="92.3978" cy="182.8359" fill="#000000" rx="3" ry="3" style="stroke:#000000;stroke-width:1.0;"/><text fill="#000000" font-family="sans-serif" font-size="14" lengthAdjust="spacing" textLength="125" x="101.3978" y="186.1826">modifDate : Date</text><ellipse cx="92.3978" cy="199.1328" fill="#000000" rx="3" ry="3" style="stroke:#000000;stroke-width:1.0;"/><text fill="#000000" font-family="sans-serif" font-size="14" lengthAdjust="spacing" textLength="319" x="101.3978" y="202.4795">action : String ["create", "update", "delete"]</text><ellipse cx="92.3978" cy="215.4297" fill="#000000" rx="3" ry="3" style="stroke:#000000;stroke-width:1.0;"/><text fill="#000000" font-family="sans-serif" font-size="14" lengthAdjust="spacing" textLength="174" x="101.3978" y="218.7764">entityCollection : String</text><ellipse cx="92.3978" cy="231.7266" fill="#000000" rx="3" ry="3" style="stroke:#000000;stroke-width:1.0;"/><text fill="#000000" font-family="sans-serif" font-size="14" lengthAdjust="spacing" textLength="183" x="101.3978" y="235.0732">modifiedEntity : ObjectId</text><ellipse cx="92.3978" cy="248.0234" fill="#000000" rx="3" ry="3" style="stroke:#000000;stroke-width:1.0;"/><text fill="#000000" font-family="sans-serif" font-size="14" lengthAdjust="spacing" textLength="101" x="101.3978" y="251.3701">fields : Object</text></g><!--class Status - StatusSchema--><g id="elem_Status - StatusSchema"><rect codeLine="83" fill="#F1F1F1" height="107.4844" id="Status - StatusSchema" rx="2.5" ry="2.5" style="stroke:#181818;stroke-width:0.5;" width="439" x="991.3978" y="114.5"/><text fill="#000000" font-family="sans-serif" font-size="14" lengthAdjust="spacing" textLength="163" x="1129.3978" y="132.4951">Status - StatusSchema</text><line style="stroke:#181818;stroke-width:0.5;" x1="992.3978" x2="1429.3978" y1="140.7969" y2="140.7969"/><ellipse cx="1002.3978" cy="154.4453" fill="#000000" rx="3" ry="3" style="stroke:#000000;stroke-width:1.0;"/><text fill="#000000" font-family="sans-serif" font-size="14" lengthAdjust="spacing" textLength="413" x="1011.3978" y="157.792">state : ["accepted", "rejected", "deprecated", "pending"]</text><ellipse cx="1002.3978" cy="170.7422" fill="#000000" rx="3" ry="3" style="stroke:#000000;stroke-width:1.0;"/><text fill="#000000" font-family="sans-serif" font-size="14" lengthAdjust="spacing" textLength="166" x="1011.3978" y="174.0889">requestedBy : ObjectId</text><ellipse cx="1002.3978" cy="187.0391" fill="#000000" rx="3" ry="3" style="stroke:#000000;stroke-width:1.0;"/><text fill="#000000" font-family="sans-serif" font-size="14" lengthAdjust="spacing" textLength="181" x="1011.3978" y="190.3857">lastModifiedBy : ObjectId</text><ellipse cx="1002.3978" cy="203.3359" fill="#000000" rx="3" ry="3" style="stroke:#000000;stroke-width:1.0;"/><text fill="#000000" font-family="sans-serif" font-size="14" lengthAdjust="spacing" textLength="120" x="1011.3978" y="206.6826">message : String</text><line style="stroke:#181818;stroke-width:0.5;" x1="992.3978" x2="1429.3978" y1="213.9844" y2="213.9844"/></g><!--class Media - MediaSchema--><g id="elem_Media - MediaSchema"><rect codeLine="90" fill="#F1F1F1" height="254.1563" id="Media - MediaSchema" rx="2.5" ry="2.5" style="stroke:#181818;stroke-width:0.5;" width="508" x="1465.8978" y="41"/><text fill="#000000" font-family="sans-serif" font-size="14" lengthAdjust="spacing" textLength="155" x="1642.3978" y="58.9951">Media - MediaSchema</text><line style="stroke:#181818;stroke-width:0.5;" x1="1466.8978" x2="1972.8978" y1="67.2969" y2="67.2969"/><ellipse cx="1476.8978" cy="80.9453" fill="#000000" rx="3" ry="3" style="stroke:#000000;stroke-width:1.0;"/><text fill="#000000" font-family="sans-serif" font-size="14" lengthAdjust="spacing" textLength="88" x="1485.8978" y="84.292">title : String</text><ellipse cx="1476.8978" cy="97.2422" fill="#000000" rx="3" ry="3" style="stroke:#000000;stroke-width:1.0;"/><text fill="#000000" font-family="sans-serif" font-size="14" lengthAdjust="spacing" textLength="76" x="1485.8978" y="100.5889">alt : String</text><ellipse cx="1476.8978" cy="113.5391" fill="#000000" rx="3" ry="3" style="stroke:#000000;stroke-width:1.0;"/><text fill="#000000" font-family="sans-serif" font-size="14" lengthAdjust="spacing" textLength="139" x="1485.8978" y="116.8857">description : String</text><ellipse cx="1476.8978" cy="129.8359" fill="#000000" rx="3" ry="3" style="stroke:#000000;stroke-width:1.0;"/><text fill="#000000" font-family="sans-serif" font-size="14" lengthAdjust="spacing" textLength="91" x="1485.8978" y="133.1826">path : String</text><ellipse cx="1476.8978" cy="146.1328" fill="#000000" rx="3" ry="3" style="stroke:#000000;stroke-width:1.0;"/><text fill="#000000" font-family="sans-serif" font-size="14" lengthAdjust="spacing" textLength="128" x="1485.8978" y="149.4795">extension : String</text><ellipse cx="1476.8978" cy="162.4297" fill="#000000" rx="3" ry="3" style="stroke:#000000;stroke-width:1.0;"/><text fill="#000000" font-family="sans-serif" font-size="14" lengthAdjust="spacing" textLength="132" x="1485.8978" y="165.7764">entityId : ObjectId</text><ellipse cx="1476.8978" cy="178.7266" fill="#000000" rx="3" ry="3" style="stroke:#000000;stroke-width:1.0;"/><text fill="#000000" font-family="sans-serif" font-size="14" lengthAdjust="spacing" textLength="137" x="1485.8978" y="182.0732">entityType : String</text><ellipse cx="1476.8978" cy="195.0234" fill="#000000" rx="3" ry="3" style="stroke:#000000;stroke-width:1.0;"/><text fill="#000000" font-family="sans-serif" font-size="14" lengthAdjust="spacing" textLength="159" x="1485.8978" y="198.3701">uploadedBy : ObjectId</text><line style="stroke:#181818;stroke-width:0.5;" x1="1466.8978" x2="1972.8978" y1="205.6719" y2="205.6719"/><ellipse cx="1476.8978" cy="219.3203" fill="#000000" rx="3" ry="3" style="stroke:#000000;stroke-width:1.0;"/><text fill="#000000" font-family="sans-serif" font-size="14" lengthAdjust="spacing" textLength="199" x="1485.8978" y="222.667">licence : String (licenceList)</text><ellipse cx="1476.8978" cy="235.6172" fill="#000000" rx="3" ry="3" style="stroke:#000000;stroke-width:1.0;"/><text fill="#000000" font-family="sans-serif" font-size="14" lengthAdjust="spacing" textLength="215" x="1485.8978" y="238.9639">fileType : String (fileTypeList)</text><text fill="#000000" font-family="sans-serif" font-size="14" lengthAdjust="spacing" textLength="482" x="1485.8978" y="255.2607">(...fileExtensionImage, ...fileExtensionVideo, ...fileExtensionSound)</text><ellipse cx="1476.8978" cy="268.2109" fill="#000000" rx="3" ry="3" style="stroke:#000000;stroke-width:1.0;"/><text fill="#000000" font-family="sans-serif" font-size="14" lengthAdjust="spacing" textLength="130" x="1485.8978" y="271.5576">slug : String (title)</text><ellipse cx="1476.8978" cy="284.5078" fill="#000000" rx="3" ry="3" style="stroke:#000000;stroke-width:1.0;"/><text fill="#000000" font-family="sans-serif" font-size="14" lengthAdjust="spacing" textLength="223" x="1485.8978" y="287.8545">status : Object (StatusSchema)</text></g><!--class Member - MemberSchema--><g id="elem_Member - MemberSchema"><rect codeLine="106" fill="#F1F1F1" height="91.1875" id="Member - MemberSchema" rx="2.5" ry="2.5" style="stroke:#181818;stroke-width:0.5;" width="249" x="1086.3978" y="447"/><text fill="#000000" font-family="sans-serif" font-size="14" lengthAdjust="spacing" textLength="191" x="1115.3978" y="464.9951">Member - MemberSchema</text><line style="stroke:#181818;stroke-width:0.5;" x1="1087.3978" x2="1334.3978" y1="473.2969" y2="473.2969"/><ellipse cx="1097.3978" cy="486.9453" fill="#000000" rx="3" ry="3" style="stroke:#000000;stroke-width:1.0;"/><text fill="#000000" font-family="sans-serif" font-size="14" lengthAdjust="spacing" textLength="137" x="1106.3978" y="490.292">member : ObjectId</text><line style="stroke:#181818;stroke-width:0.5;" x1="1087.3978" x2="1334.3978" y1="497.5938" y2="497.5938"/><ellipse cx="1097.3978" cy="511.2422" fill="#000000" rx="3" ry="3" style="stroke:#000000;stroke-width:1.0;"/><text fill="#000000" font-family="sans-serif" font-size="14" lengthAdjust="spacing" textLength="193" x="1106.3978" y="514.5889">role : Object (RoleSchema)</text><ellipse cx="1097.3978" cy="527.5391" fill="#000000" rx="3" ry="3" style="stroke:#000000;stroke-width:1.0;"/><text fill="#000000" font-family="sans-serif" font-size="14" lengthAdjust="spacing" textLength="223" x="1106.3978" y="530.8857">status : Object (StatusSchema)</text></g><!--class Role - RoleSchema--><g id="elem_Role - RoleSchema"><rect codeLine="112" fill="#F1F1F1" height="74.8906" id="Role - RoleSchema" rx="2.5" ry="2.5" style="stroke:#181818;stroke-width:0.5;" width="141" x="1370.3978" y="455"/><text fill="#000000" font-family="sans-serif" font-size="14" lengthAdjust="spacing" textLength="135" x="1373.3978" y="472.9951">Role - RoleSchema</text><line style="stroke:#181818;stroke-width:0.5;" x1="1371.3978" x2="1510.3978" y1="481.2969" y2="481.2969"/><ellipse cx="1381.3978" cy="494.9453" fill="#000000" rx="3" ry="3" style="stroke:#000000;stroke-width:1.0;"/><text fill="#000000" font-family="sans-serif" font-size="14" lengthAdjust="spacing" textLength="99" x="1390.3978" y="498.292">group : String</text><ellipse cx="1381.3978" cy="511.2422" fill="#000000" rx="3" ry="3" style="stroke:#000000;stroke-width:1.0;"/><text fill="#000000" font-family="sans-serif" font-size="14" lengthAdjust="spacing" textLength="88" x="1390.3978" y="514.5889">title : String</text><line style="stroke:#181818;stroke-width:0.5;" x1="1371.3978" x2="1510.3978" y1="521.8906" y2="521.8906"/></g><!--class TaxonomiesCategoriesEnum--><g id="elem_TaxonomiesCategoriesEnum"><rect codeLine="120" fill="#F1F1F1" height="107.4844" id="TaxonomiesCategoriesEnum" rx="2.5" ry="2.5" style="stroke:#181818;stroke-width:0.5;" width="221" x="2030.3978" y="114.5"/><text fill="#000000" font-family="sans-serif" font-size="14" lengthAdjust="spacing" textLength="204" x="2038.8978" y="132.4951">TaxonomiesCategoriesEnum</text><line style="stroke:#181818;stroke-width:0.5;" x1="2031.3978" x2="2250.3978" y1="140.7969" y2="140.7969"/><text fill="#000000" font-family="sans-serif" font-size="14" lengthAdjust="spacing" textLength="209" x="2036.3978" y="157.792">Occupations = "occupations"</text><text fill="#000000" font-family="sans-serif" font-size="14" lengthAdjust="spacing" textLength="155" x="2036.3978" y="174.0889">Domains = "domains"</text><text fill="#000000" font-family="sans-serif" font-size="14" lengthAdjust="spacing" textLength="149" x="2036.3978" y="190.3857">Abilities = "abilities"</text><text fill="#000000" font-family="sans-serif" font-size="14" lengthAdjust="spacing" textLength="105" x="2036.3978" y="206.6826">Skills = "skills"</text><line style="stroke:#181818;stroke-width:0.5;" x1="2031.3978" x2="2250.3978" y1="213.9844" y2="213.9844"/></g><!--class fileTypeList--><g id="elem_fileTypeList"><rect codeLine="127" fill="#F1F1F1" height="91.1875" id="fileTypeList" rx="2.5" ry="2.5" style="stroke:#181818;stroke-width:0.5;" width="91" x="2286.3978" y="122.5"/><text fill="#000000" font-family="sans-serif" font-size="14" lengthAdjust="spacing" textLength="85" x="2289.3978" y="140.4951">fileTypeList</text><line style="stroke:#181818;stroke-width:0.5;" x1="2287.3978" x2="2376.3978" y1="148.7969" y2="148.7969"/><text fill="#000000" font-family="sans-serif" font-size="14" lengthAdjust="spacing" textLength="44" x="2292.3978" y="165.792">image</text><text fill="#000000" font-family="sans-serif" font-size="14" lengthAdjust="spacing" textLength="39" x="2292.3978" y="182.0889">video</text><text fill="#000000" font-family="sans-serif" font-size="14" lengthAdjust="spacing" textLength="42" x="2292.3978" y="198.3857">sound</text><line style="stroke:#181818;stroke-width:0.5;" x1="2287.3978" x2="2376.3978" y1="205.6875" y2="205.6875"/></g><!--class fileExtensionImage--><g id="elem_fileExtensionImage"><rect codeLine="133" fill="#F1F1F1" height="140.0781" id="fileExtensionImage" rx="2.5" ry="2.5" style="stroke:#181818;stroke-width:0.5;" width="144" x="2412.8978" y="98"/><text fill="#000000" font-family="sans-serif" font-size="14" lengthAdjust="spacing" textLength="138" x="2415.8978" y="115.9951">fileExtensionImage</text><line style="stroke:#181818;stroke-width:0.5;" x1="2413.8978" x2="2555.8978" y1="124.2969" y2="124.2969"/><text fill="#000000" font-family="sans-serif" font-size="14" lengthAdjust="spacing" textLength="28" x="2418.8978" y="141.292">png</text><text fill="#000000" font-family="sans-serif" font-size="14" lengthAdjust="spacing" textLength="23" x="2418.8978" y="157.5889">jpg</text><text fill="#000000" font-family="sans-serif" font-size="14" lengthAdjust="spacing" textLength="32" x="2418.8978" y="173.8857">jpeg</text><text fill="#000000" font-family="sans-serif" font-size="14" lengthAdjust="spacing" textLength="19" x="2418.8978" y="190.1826">gif</text><text fill="#000000" font-family="sans-serif" font-size="14" lengthAdjust="spacing" textLength="24" x="2418.8978" y="206.4795">svg</text><text fill="#000000" font-family="sans-serif" font-size="14" lengthAdjust="spacing" textLength="40" x="2418.8978" y="222.7764">webp</text><line style="stroke:#181818;stroke-width:0.5;" x1="2413.8978" x2="2555.8978" y1="230.0781" y2="230.0781"/></g><!--class fileExtensionVideo--><g id="elem_fileExtensionVideo"><rect codeLine="142" fill="#F1F1F1" height="58.5938" id="fileExtensionVideo" rx="2.5" ry="2.5" style="stroke:#181818;stroke-width:0.5;" width="141" x="2043.3978" y="463"/><text fill="#000000" font-family="sans-serif" font-size="14" lengthAdjust="spacing" textLength="135" x="2046.3978" y="480.9951">fileExtensionVideo</text><line style="stroke:#181818;stroke-width:0.5;" x1="2044.3978" x2="2183.3978" y1="489.2969" y2="489.2969"/><text fill="#000000" font-family="sans-serif" font-size="14" lengthAdjust="spacing" textLength="32" x="2049.3978" y="506.292">mp4</text><line style="stroke:#181818;stroke-width:0.5;" x1="2044.3978" x2="2183.3978" y1="513.5938" y2="513.5938"/></g><!--class fileExtensionSound--><g id="elem_fileExtensionSound"><rect codeLine="146" fill="#F1F1F1" height="74.8906" id="fileExtensionSound" rx="2.5" ry="2.5" style="stroke:#181818;stroke-width:0.5;" width="144" x="2219.8978" y="455"/><text fill="#000000" font-family="sans-serif" font-size="14" lengthAdjust="spacing" textLength="138" x="2222.8978" y="472.9951">fileExtensionSound</text><line style="stroke:#181818;stroke-width:0.5;" x1="2220.8978" x2="2362.8978" y1="481.2969" y2="481.2969"/><text fill="#000000" font-family="sans-serif" font-size="14" lengthAdjust="spacing" textLength="27" x="2225.8978" y="498.292">wav</text><text fill="#000000" font-family="sans-serif" font-size="14" lengthAdjust="spacing" textLength="33" x="2225.8978" y="514.5889">mp3</text><line style="stroke:#181818;stroke-width:0.5;" x1="2220.8978" x2="2362.8978" y1="521.8906" y2="521.8906"/></g><!--class licenceList--><g id="elem_licenceList"><rect codeLine="151" fill="#F1F1F1" height="172.6719" id="licenceList" rx="2.5" ry="2.5" style="stroke:#181818;stroke-width:0.5;" width="157" x="2399.3978" y="406"/><text fill="#000000" font-family="sans-serif" font-size="14" lengthAdjust="spacing" textLength="77" x="2439.3978" y="423.9951">licenceList</text><line style="stroke:#181818;stroke-width:0.5;" x1="2400.3978" x2="2555.3978" y1="432.2969" y2="432.2969"/><text fill="#000000" font-family="sans-serif" font-size="14" lengthAdjust="spacing" textLength="42" x="2405.3978" y="449.292">CC By</text><text fill="#000000" font-family="sans-serif" font-size="14" lengthAdjust="spacing" textLength="67" x="2405.3978" y="465.5889">CC By-SA</text><text fill="#000000" font-family="sans-serif" font-size="14" lengthAdjust="spacing" textLength="69" x="2405.3978" y="481.8857">CC By-ND</text><text fill="#000000" font-family="sans-serif" font-size="14" lengthAdjust="spacing" textLength="68" x="2405.3978" y="498.1826">CC By-NC</text><text fill="#000000" font-family="sans-serif" font-size="14" lengthAdjust="spacing" textLength="93" x="2405.3978" y="514.4795">CC By-NC-SA</text><text fill="#000000" font-family="sans-serif" font-size="14" lengthAdjust="spacing" textLength="95" x="2405.3978" y="530.7764">CC By-NC-ND</text><text fill="#000000" font-family="sans-serif" font-size="14" lengthAdjust="spacing" textLength="126" x="2405.3978" y="547.0732">Copyright to user</text><line style="stroke:#181818;stroke-width:0.5;" x1="2400.3978" x2="2555.3978" y1="554.375" y2="554.375"/><text fill="#000000" font-family="sans-serif" font-size="14" lengthAdjust="spacing" textLength="145" x="2405.3978" y="571.3701">Public Domain (CC0)</text></g><!--reverse link pers to taxo--><g id="link_pers_taxo"><path codeLine="164" d="M808.8978,534.5 C848.2338,534.5 817.6618,590.234 795.8978,623 C728.8808,723.895 613.5448,631.026 545.8978,731.5 C535.4698,746.989 526.2258,773.5 544.8978,773.5 " fill="none" id="pers-backto-taxo" style="stroke:#181818;stroke-width:1.0;"/><polygon fill="none" points="796.8978,534.5,802.8978,538.5,808.8978,534.5,802.8978,530.5,796.8978,534.5" style="stroke:#181818;stroke-width:1.0;"/></g><!--reverse link org to taxo--><g id="link_org_taxo"><path codeLine="165" d="M507.8978,895.5 C566.3298,895.5 486.4658,773.5 544.8978,773.5 " fill="none" id="org-backto-taxo" style="stroke:#181818;stroke-width:1.0;"/><polygon fill="none" points="495.8978,895.5,501.8978,899.5,507.8978,895.5,501.8978,891.5,495.8978,895.5" style="stroke:#181818;stroke-width:1.0;"/></g><!--reverse link usrhst to usr--><g id="link_usrhst_usr"><path codeLine="166" d="M439.8978,140 C494.1218,140 452.1188,213.999 426.8978,262 C379.1818,352.814 286.3208,304.061 237.8978,394.5 C229.0838,410.961 218.2258,436.5 236.8978,436.5 " fill="none" id="usrhst-backto-usr" style="stroke:#181818;stroke-width:1.0;"/><polygon fill="#181818" points="427.8978,140,433.8978,144,439.8978,140,433.8978,136,427.8978,140" style="stroke:#181818;stroke-width:1.0;"/></g><!--link Entity to usrhst--><g id="link_Entity_usrhst"><path codeLine="167" d="M182.6383,477.8404 C181.8974,477.0069 184.5568,479.991 183.7365,479.063 C177.1738,471.639 168.1411,461.2532 157.7989,448.9033 C137.1145,424.2037 111.1922,391.6479 89.3165,359.2178 C45.565,294.3575 6,230 68.8978,230 " fill="none" id="Entity-usrhst" style="stroke:#181818;stroke-width:1.0;"/><polygon fill="#181818" points="186.6274,482.3223,183.6316,472.9401,183.3031,478.5874,177.6558,478.259,186.6274,482.3223" style="stroke:#181818;stroke-width:1.0;"/><polygon fill="#181818" points="80.8978,230,74.8978,226,68.8978,230,74.8978,234,80.8978,230" style="stroke:#181818;stroke-width:1.0;"/></g><!--reverse link pers to org--><g id="link_pers_org"><path codeLine="168" d="M502.8978,404.5 C450.9658,404.5 547.8298,871.5 495.8978,871.5 " fill="none" id="pers-backto-org" style="stroke:#181818;stroke-width:1.0;"/><polygon fill="none" points="514.8978,404.5,508.8978,400.5,502.8978,404.5,508.8978,408.5,514.8978,404.5" style="stroke:#181818;stroke-width:1.0;"/></g><!--SRC=[hLTHRziu37xFhn3yqgHN5mFkdW9iG9SMM85sBIxRNehYe5YCerMMV9ASB1ZwtqT9TYmhMIu5hWyfHL8I-UaJAPyzIF9jFbCCBaYjmHXo9IpvWrmJguXPgOtJhZbiY5gIMb1flzxVZKQZ5MT02guB0QEQ5Y-q178ZBRTRydD420GnUmHjbCm8DQH6qTi8EV-7Cp8b3ullKDXRvdLv7ao26lkPLe3skTLSba6zvBhJnseZcdBdISOxhxnRPXBy92zU3gpAm1IQrvOhcLYCfROnko39UEuLys855PqC8bP5qTJKhU7ylSxz_IIzeS_rOcS_lWDv7UnHKIvlAmToxtyFZDCu8Fnv7KNWVw4_b5JLriDlSN02_0MrK2gzZK1jb-5WPi68qerigWxQVLYJKv7zEHm1N3MwWBUUmY3V1rrIoOr7tEUiT7b2olzJ0eqMYQPGqjB2FYekRKfd9PcFyneXHPlxzsRYMQ0LEZxrXAWMe5lFvo57bqjt_ORqTBeKbFzcvciA-rS3siFT67q2t0sw7u0Sb-OfW3KrPgCqIzHqJItLYL8UhHa3_MzAZ5PYe7eTOPfTRRjJfHbKDfVr9suitfKk-PMn9-R_EnklhnZpLNWOMgKON-vH1RaLqv0yPOK6j6ON96jgraeC1A3qtCBimvyf8Q0uG6A_4GVMbl8aJ4GK1EkPaO8K63B4AN27v2GcKTRXvAZcadhAQ550RO6va3MurOFC01kGgqf-L8Da66oNZOP_6p1e-xWVgplb-pQT0-OAKGxrD3hmA6vVNJ7igChkeaOFaRA72djoSy6ci4evoGkGKVqZurPpXnoRTEWB-BAjOT3mWYhoWXyMfDdRT7nvUUcyRpgpRoSN95L_myQkzjLprKWsELWTFHgJc5wtU-Hl3OFes-jG2qNPmIDwM_KFrS-VM5y6TqTM1MkwHNldkmt-nc5SQTyOWfkE0VIhxBOljMhg9FCz5WtkakkmxbHnXVsMljUBkuqUehV8Uv95JvFCsw-LUqbu6mjYq5yjkE0M5tCMsWs2RVx2XV06uwKiJJicOHS88TpngvNNZbIjR1oJ3YqnP6Q_KDq2HiZtkfUW4qk-x5PUTxeDBEgZMtYMzrjKzLz7tJtxU_SDNUyc_fbEZEvjD-EnMQ2s1P-CPxDtWLwp6VcuxQLyVXKDFb_7WzbWa7ZETiwgtcfUhgnxlRj6qx7gJ8C8F1YvT_Xq6ZzQLQvp_pwSJh5lZV3LXFRmO4XCeSbDfxw7dUUvwtf3Iz90pdEHVsW_3DgTNMjKEDLluvum6DsjN7F35tWT19Sl1kkQqXN5YdRclnho9_pSO22VcP-MQhMFunS0]--></g></svg>