<?xml version="1.0" encoding="UTF-8" standalone="no"?><svg xmlns="http://www.w3.org/2000/svg" xmlns:xlink="http://www.w3.org/1999/xlink" contentStyleType="text/css" height="930px" preserveAspectRatio="none" style="width:2189px;height:930px;background:#FFFFFF;" version="1.1" viewBox="0 0 2189 930" width="2189px" zoomAndPan="magnify"><defs/><g><!--cluster Entity--><g id="cluster_Entity"><path d="M141.8967,276 L191.8967,276 A3.75,3.75 0 0 1 194.3967,278.5 L201.3967,298.2969 L892.8967,298.2969 A2.5,2.5 0 0 1 895.3967,300.7969 L895.3967,920.5 A2.5,2.5 0 0 1 892.8967,923 L141.8967,923 A2.5,2.5 0 0 1 139.3967,920.5 L139.3967,278.5 A2.5,2.5 0 0 1 141.8967,276 " fill="none" style="stroke:#000000;stroke-width:1.5;"/><line style="stroke:#000000;stroke-width:1.5;" x1="139.3967" x2="201.3967" y1="298.2969" y2="298.2969"/><text fill="#000000" font-family="sans-serif" font-size="14" font-weight="bold" lengthAdjust="spacing" textLength="49" x="143.3967" y="290.9951">Entity</text></g><!--cluster Logs--><g id="cluster_Logs"><path d="M11.8967,6 L50.8967,6 A3.75,3.75 0 0 1 53.3967,8.5 L60.3967,28.2969 L400.8967,28.2969 A2.5,2.5 0 0 1 403.3967,30.7969 L403.3967,241.5 A2.5,2.5 0 0 1 400.8967,244 L11.8967,244 A2.5,2.5 0 0 1 9.3967,241.5 L9.3967,8.5 A2.5,2.5 0 0 1 11.8967,6 " fill="none" style="stroke:#000000;stroke-width:1.5;"/><line style="stroke:#000000;stroke-width:1.5;" x1="9.3967" x2="60.3967" y1="28.2969" y2="28.2969"/><text fill="#000000" font-family="sans-serif" font-size="14" font-weight="bold" lengthAdjust="spacing" textLength="38" x="13.3967" y="20.9951">Logs</text></g><!--cluster Schemas--><g id="cluster_Schemas"><path d="M929.8967,37.5 L1002.8967,37.5 A3.75,3.75 0 0 1 1005.3967,40 L1012.3967,59.7969 L1596.8967,59.7969 A2.5,2.5 0 0 1 1599.3967,62.2969 L1599.3967,508 A2.5,2.5 0 0 1 1596.8967,510.5 L929.8967,510.5 A2.5,2.5 0 0 1 927.3967,508 L927.3967,40 A2.5,2.5 0 0 1 929.8967,37.5 " fill="none" style="stroke:#000000;stroke-width:1.5;"/><line style="stroke:#000000;stroke-width:1.5;" x1="927.3967" x2="1012.3967" y1="59.7969" y2="59.7969"/><text fill="#000000" font-family="sans-serif" font-size="14" font-weight="bold" lengthAdjust="spacing" textLength="72" x="931.3967" y="52.4951">Schemas</text></g><!--cluster EnumList--><g id="cluster_EnumList"><path d="M1625.8967,29.5 L1701.8967,29.5 A3.75,3.75 0 0 1 1704.3967,32 L1711.3967,51.7969 L2179.8967,51.7969 A2.5,2.5 0 0 1 2182.3967,54.2969 L2182.3967,549 A2.5,2.5 0 0 1 2179.8967,551.5 L1625.8967,551.5 A2.5,2.5 0 0 1 1623.3967,549 L1623.3967,32 A2.5,2.5 0 0 1 1625.8967,29.5 " fill="none" style="stroke:#000000;stroke-width:1.5;"/><line style="stroke:#000000;stroke-width:1.5;" x1="1623.3967" x2="1711.3967" y1="51.7969" y2="51.7969"/><text fill="#000000" font-family="sans-serif" font-size="14" font-weight="bold" lengthAdjust="spacing" textLength="75" x="1627.3967" y="44.4951">EnumList</text></g><!--class pers--><g id="elem_pers"><rect codeLine="6" fill="#F1F1F1" height="253.8594" id="pers" rx="2.5" ry="2.5" style="stroke:#181818;stroke-width:0.5;" width="280" x="468.3967" y="323"/><text fill="#000000" font-family="sans-serif" font-size="14" lengthAdjust="spacing" textLength="49" x="583.8967" y="340.9951">Person</text><line style="stroke:#181818;stroke-width:0.5;" x1="469.3967" x2="747.3967" y1="349.2969" y2="349.2969"/><ellipse cx="479.3967" cy="362.9453" fill="#000000" rx="3" ry="3" style="stroke:#000000;stroke-width:1.0;"/><text fill="#000000" font-family="sans-serif" font-size="14" lengthAdjust="spacing" textLength="95" x="488.3967" y="366.292">_id : ObjectId</text><line style="stroke:#181818;stroke-width:1.0;" x1="469.3967" x2="747.3967" y1="373.5938" y2="373.5938"/><ellipse cx="479.3967" cy="387.2422" fill="#000000" rx="3" ry="3" style="stroke:#000000;stroke-width:1.0;"/><text fill="#000000" font-family="sans-serif" font-size="14" lengthAdjust="spacing" textLength="124" x="488.3967" y="390.5889">lastName : String</text><ellipse cx="479.3967" cy="403.5391" fill="#000000" rx="3" ry="3" style="stroke:#000000;stroke-width:1.0;"/><text fill="#000000" font-family="sans-serif" font-size="14" lengthAdjust="spacing" textLength="124" x="488.3967" y="406.8857">firstName :String</text><ellipse cx="479.3967" cy="419.8359" fill="#000000" rx="3" ry="3" style="stroke:#000000;stroke-width:1.0;"/><text fill="#000000" font-family="sans-serif" font-size="14" lengthAdjust="spacing" textLength="243" x="488.3967" y="423.1826">slug : String (firstName-lastName)</text><ellipse cx="479.3967" cy="436.1328" fill="#000000" rx="3" ry="3" style="stroke:#000000;stroke-width:1.0;"/><text fill="#000000" font-family="sans-serif" font-size="14" lengthAdjust="spacing" textLength="128" x="488.3967" y="439.4795">nickName : String</text><ellipse cx="479.3967" cy="452.4297" fill="#000000" rx="3" ry="3" style="stroke:#000000;stroke-width:1.0;"/><text fill="#000000" font-family="sans-serif" font-size="14" lengthAdjust="spacing" textLength="139" x="488.3967" y="455.7764">description : String</text><ellipse cx="479.3967" cy="468.7266" fill="#000000" rx="3" ry="3" style="stroke:#000000;stroke-width:1.0;"/><text fill="#000000" font-family="sans-serif" font-size="14" lengthAdjust="spacing" textLength="223" x="488.3967" y="472.0732">status : Object (StatusSchema)</text><line style="stroke:#181818;stroke-width:1.0;" x1="469.3967" x2="747.3967" y1="479.375" y2="479.375"/><ellipse cx="479.3967" cy="493.0234" fill="#000000" rx="3" ry="3" style="stroke:#000000;stroke-width:1.0;"/><text fill="#000000" font-family="sans-serif" font-size="14" lengthAdjust="spacing" textLength="96" x="488.3967" y="496.3701">occupations :</text><text fill="#000000" font-family="sans-serif" font-size="14" lengthAdjust="spacing" textLength="168" x="488.3967" y="512.667">{ occupation: ObjectId,</text><text fill="#000000" font-family="sans-serif" font-size="14" lengthAdjust="spacing" textLength="236" x="488.3967" y="528.9639">status : Object (StatusSchema) }</text><line style="stroke:#181818;stroke-width:1.0;" x1="469.3967" x2="747.3967" y1="536.2656" y2="536.2656"/><ellipse cx="479.3967" cy="549.9141" fill="#000000" rx="3" ry="3" style="stroke:#000000;stroke-width:1.0;"/><text fill="#000000" font-family="sans-serif" font-size="14" lengthAdjust="spacing" textLength="254" x="488.3967" y="553.2607">mainImage : Object (MediaSchema)</text><text fill="#000000" font-family="sans-serif" font-size="14" lengthAdjust="spacing" textLength="4" x="488.3967" y="569.5576"> </text></g><!--class taxo--><g id="elem_taxo"><rect codeLine="24" fill="#F1F1F1" height="156.375" id="taxo" rx="2.5" ry="2.5" style="stroke:#181818;stroke-width:0.5;" width="365" x="497.8967" y="691.5"/><text fill="#000000" font-family="sans-serif" font-size="14" lengthAdjust="spacing" textLength="74" x="643.3967" y="709.4951">Taxonomy</text><line style="stroke:#181818;stroke-width:0.5;" x1="498.8967" x2="861.8967" y1="717.7969" y2="717.7969"/><ellipse cx="508.8967" cy="731.4453" fill="#000000" rx="3" ry="3" style="stroke:#000000;stroke-width:1.0;"/><text fill="#000000" font-family="sans-serif" font-size="14" lengthAdjust="spacing" textLength="95" x="517.8967" y="734.792">_id : ObjectId</text><line style="stroke:#181818;stroke-width:1.0;" x1="498.8967" x2="861.8967" y1="742.0938" y2="742.0938"/><ellipse cx="508.8967" cy="755.7422" fill="#000000" rx="3" ry="3" style="stroke:#000000;stroke-width:1.0;"/><text fill="#000000" font-family="sans-serif" font-size="14" lengthAdjust="spacing" textLength="339" x="517.8967" y="759.0889">category : String (TaxonomiesCategoriesEnum)</text><ellipse cx="508.8967" cy="772.0391" fill="#000000" rx="3" ry="3" style="stroke:#000000;stroke-width:1.0;"/><text fill="#000000" font-family="sans-serif" font-size="14" lengthAdjust="spacing" textLength="97" x="517.8967" y="775.3857">name : String</text><ellipse cx="508.8967" cy="788.3359" fill="#000000" rx="3" ry="3" style="stroke:#000000;stroke-width:1.0;"/><text fill="#000000" font-family="sans-serif" font-size="14" lengthAdjust="spacing" textLength="139" x="517.8967" y="791.6826">slug : String (name)</text><ellipse cx="508.8967" cy="804.6328" fill="#000000" rx="3" ry="3" style="stroke:#000000;stroke-width:1.0;"/><text fill="#000000" font-family="sans-serif" font-size="14" lengthAdjust="spacing" textLength="139" x="517.8967" y="807.9795">description : String</text><ellipse cx="508.8967" cy="820.9297" fill="#000000" rx="3" ry="3" style="stroke:#000000;stroke-width:1.0;"/><text fill="#000000" font-family="sans-serif" font-size="14" lengthAdjust="spacing" textLength="104" x="517.8967" y="824.2764">source : String</text><ellipse cx="508.8967" cy="837.2266" fill="#000000" rx="3" ry="3" style="stroke:#000000;stroke-width:1.0;"/><text fill="#000000" font-family="sans-serif" font-size="14" lengthAdjust="spacing" textLength="223" x="517.8967" y="840.5732">status : Object (StatusSchema)</text></g><!--class org--><g id="elem_org"><rect codeLine="35" fill="#F1F1F1" height="253.8594" id="org" rx="2.5" ry="2.5" style="stroke:#181818;stroke-width:0.5;" width="267" x="179.8967" y="643"/><text fill="#000000" font-family="sans-serif" font-size="14" lengthAdjust="spacing" textLength="91" x="267.8967" y="660.9951">Organisation</text><line style="stroke:#181818;stroke-width:0.5;" x1="180.8967" x2="445.8967" y1="669.2969" y2="669.2969"/><ellipse cx="190.8967" cy="682.9453" fill="#000000" rx="3" ry="3" style="stroke:#000000;stroke-width:1.0;"/><text fill="#000000" font-family="sans-serif" font-size="14" lengthAdjust="spacing" textLength="95" x="199.8967" y="686.292">_id : ObjectId</text><line style="stroke:#181818;stroke-width:1.0;" x1="180.8967" x2="445.8967" y1="693.5938" y2="693.5938"/><ellipse cx="190.8967" cy="707.2422" fill="#000000" rx="3" ry="3" style="stroke:#000000;stroke-width:1.0;"/><text fill="#000000" font-family="sans-serif" font-size="14" lengthAdjust="spacing" textLength="97" x="199.8967" y="710.5889">name : String</text><ellipse cx="190.8967" cy="723.5391" fill="#000000" rx="3" ry="3" style="stroke:#000000;stroke-width:1.0;"/><text fill="#000000" font-family="sans-serif" font-size="14" lengthAdjust="spacing" textLength="139" x="199.8967" y="726.8857">slug : String (name)</text><ellipse cx="190.8967" cy="739.8359" fill="#000000" rx="3" ry="3" style="stroke:#000000;stroke-width:1.0;"/><text fill="#000000" font-family="sans-serif" font-size="14" lengthAdjust="spacing" textLength="139" x="199.8967" y="743.1826">description : String</text><ellipse cx="190.8967" cy="756.1328" fill="#000000" rx="3" ry="3" style="stroke:#000000;stroke-width:1.0;"/><text fill="#000000" font-family="sans-serif" font-size="14" lengthAdjust="spacing" textLength="75" x="199.8967" y="759.4795">url : String</text><ellipse cx="190.8967" cy="772.4297" fill="#000000" rx="3" ry="3" style="stroke:#000000;stroke-width:1.0;"/><text fill="#000000" font-family="sans-serif" font-size="14" lengthAdjust="spacing" textLength="151" x="199.8967" y="775.7764">contactPoint : String</text><ellipse cx="190.8967" cy="788.7266" fill="#000000" rx="3" ry="3" style="stroke:#000000;stroke-width:1.0;"/><text fill="#000000" font-family="sans-serif" font-size="14" lengthAdjust="spacing" textLength="153" x="199.8967" y="792.0732">fondationDate : Date</text><ellipse cx="190.8967" cy="805.0234" fill="#000000" rx="3" ry="3" style="stroke:#000000;stroke-width:1.0;"/><text fill="#000000" font-family="sans-serif" font-size="14" lengthAdjust="spacing" textLength="223" x="199.8967" y="808.3701">status : Object (StatusSchema)</text><line style="stroke:#181818;stroke-width:1.0;" x1="180.8967" x2="445.8967" y1="815.6719" y2="815.6719"/><ellipse cx="190.8967" cy="829.3203" fill="#000000" rx="3" ry="3" style="stroke:#000000;stroke-width:1.0;"/><text fill="#000000" font-family="sans-serif" font-size="14" lengthAdjust="spacing" textLength="241" x="199.8967" y="832.667">team : [Object (MemberSchema)]</text><line style="stroke:#181818;stroke-width:1.0;" x1="180.8967" x2="445.8967" y1="839.9688" y2="839.9688"/><ellipse cx="190.8967" cy="853.6172" fill="#000000" rx="3" ry="3" style="stroke:#000000;stroke-width:1.0;"/><text fill="#000000" font-family="sans-serif" font-size="14" lengthAdjust="spacing" textLength="52" x="199.8967" y="856.9639">offers :</text><text fill="#000000" font-family="sans-serif" font-size="14" lengthAdjust="spacing" textLength="124" x="199.8967" y="873.2607">{ offer : ObjectId</text><text fill="#000000" font-family="sans-serif" font-size="14" lengthAdjust="spacing" textLength="232" x="199.8967" y="889.5576">status : Object (StatusSchema)}</text></g><!--class usr--><g id="elem_usr"><rect codeLine="54" fill="#F1F1F1" height="188.9688" id="usr" rx="2.5" ry="2.5" style="stroke:#181818;stroke-width:0.5;" width="154" x="190.3967" y="355"/><text fill="#000000" font-family="sans-serif" font-size="14" lengthAdjust="spacing" textLength="31" x="251.8967" y="372.9951">User</text><line style="stroke:#181818;stroke-width:0.5;" x1="191.3967" x2="343.3967" y1="381.2969" y2="381.2969"/><ellipse cx="201.3967" cy="394.9453" fill="#000000" rx="3" ry="3" style="stroke:#000000;stroke-width:1.0;"/><text fill="#000000" font-family="sans-serif" font-size="14" lengthAdjust="spacing" textLength="95" x="210.3967" y="398.292">_id : ObjectId</text><line style="stroke:#181818;stroke-width:1.0;" x1="191.3967" x2="343.3967" y1="405.5938" y2="405.5938"/><ellipse cx="201.3967" cy="419.2422" fill="#000000" rx="3" ry="3" style="stroke:#000000;stroke-width:1.0;"/><text fill="#000000" font-family="sans-serif" font-size="14" lengthAdjust="spacing" textLength="127" x="210.3967" y="422.5889">username : String</text><ellipse cx="201.3967" cy="435.5391" fill="#000000" rx="3" ry="3" style="stroke:#000000;stroke-width:1.0;"/><text fill="#000000" font-family="sans-serif" font-size="14" lengthAdjust="spacing" textLength="96" x="210.3967" y="438.8857">email : String</text><ellipse cx="201.3967" cy="451.8359" fill="#000000" rx="3" ry="3" style="stroke:#000000;stroke-width:1.0;"/><text fill="#000000" font-family="sans-serif" font-size="14" lengthAdjust="spacing" textLength="124" x="210.3967" y="455.1826">password : String</text><ellipse cx="201.3967" cy="468.1328" fill="#000000" rx="3" ry="3" style="stroke:#000000;stroke-width:1.0;"/><text fill="#000000" font-family="sans-serif" font-size="14" lengthAdjust="spacing" textLength="102" x="210.3967" y="471.4795">avatar : String</text><ellipse cx="201.3967" cy="484.4297" fill="#000000" rx="3" ry="3" style="stroke:#000000;stroke-width:1.0;"/><text fill="#000000" font-family="sans-serif" font-size="14" lengthAdjust="spacing" textLength="97" x="210.3967" y="487.7764">name : String</text><ellipse cx="201.3967" cy="500.7266" fill="#000000" rx="3" ry="3" style="stroke:#000000;stroke-width:1.0;"/><text fill="#000000" font-family="sans-serif" font-size="14" lengthAdjust="spacing" textLength="128" x="210.3967" y="504.0732">firstName : String</text><ellipse cx="201.3967" cy="517.0234" fill="#000000" rx="3" ry="3" style="stroke:#000000;stroke-width:1.0;"/><text fill="#000000" font-family="sans-serif" font-size="14" lengthAdjust="spacing" textLength="124" x="210.3967" y="520.3701">lastName : String</text><ellipse cx="201.3967" cy="533.3203" fill="#000000" rx="3" ry="3" style="stroke:#000000;stroke-width:1.0;"/><text fill="#000000" font-family="sans-serif" font-size="14" lengthAdjust="spacing" textLength="85" x="210.3967" y="536.667">role : String</text></g><!--class usrhst--><g id="elem_usrhst"><rect codeLine="68" fill="#F1F1F1" height="180.6719" id="usrhst" rx="2.5" ry="2.5" style="stroke:#181818;stroke-width:0.5;" width="345" x="33.8967" y="45"/><text fill="#000000" font-family="sans-serif" font-size="14" lengthAdjust="spacing" textLength="82" x="165.3967" y="62.9951">UserHistory</text><line style="stroke:#181818;stroke-width:0.5;" x1="34.8967" x2="377.8967" y1="71.2969" y2="71.2969"/><ellipse cx="44.8967" cy="84.9453" fill="#000000" rx="3" ry="3" style="stroke:#000000;stroke-width:1.0;"/><text fill="#000000" font-family="sans-serif" font-size="14" lengthAdjust="spacing" textLength="95" x="53.8967" y="88.292">_id : ObjectId</text><line style="stroke:#181818;stroke-width:1.0;" x1="34.8967" x2="377.8967" y1="95.5938" y2="95.5938"/><ellipse cx="44.8967" cy="109.2422" fill="#000000" rx="3" ry="3" style="stroke:#000000;stroke-width:1.0;"/><text fill="#000000" font-family="sans-serif" font-size="14" lengthAdjust="spacing" textLength="105" x="53.8967" y="112.5889">user : ObjectId</text><line style="stroke:#181818;stroke-width:1.0;" x1="34.8967" x2="377.8967" y1="119.8906" y2="119.8906"/><ellipse cx="44.8967" cy="133.5391" fill="#000000" rx="3" ry="3" style="stroke:#000000;stroke-width:1.0;"/><text fill="#000000" font-family="sans-serif" font-size="14" lengthAdjust="spacing" textLength="128" x="53.8967" y="136.8857">ipAddress : String</text><ellipse cx="44.8967" cy="149.8359" fill="#000000" rx="3" ry="3" style="stroke:#000000;stroke-width:1.0;"/><text fill="#000000" font-family="sans-serif" font-size="14" lengthAdjust="spacing" textLength="125" x="53.8967" y="153.1826">modifDate : Date</text><ellipse cx="44.8967" cy="166.1328" fill="#000000" rx="3" ry="3" style="stroke:#000000;stroke-width:1.0;"/><text fill="#000000" font-family="sans-serif" font-size="14" lengthAdjust="spacing" textLength="319" x="53.8967" y="169.4795">action : String ["create", "update", "delete"]</text><ellipse cx="44.8967" cy="182.4297" fill="#000000" rx="3" ry="3" style="stroke:#000000;stroke-width:1.0;"/><text fill="#000000" font-family="sans-serif" font-size="14" lengthAdjust="spacing" textLength="174" x="53.8967" y="185.7764">entityCollection : String</text><ellipse cx="44.8967" cy="198.7266" fill="#000000" rx="3" ry="3" style="stroke:#000000;stroke-width:1.0;"/><text fill="#000000" font-family="sans-serif" font-size="14" lengthAdjust="spacing" textLength="183" x="53.8967" y="202.0732">modifiedEntity : ObjectId</text><ellipse cx="44.8967" cy="215.0234" fill="#000000" rx="3" ry="3" style="stroke:#000000;stroke-width:1.0;"/><text fill="#000000" font-family="sans-serif" font-size="14" lengthAdjust="spacing" textLength="101" x="53.8967" y="218.3701">fields : Object</text></g><!--class Status - StatusSchema--><g id="elem_Status - StatusSchema"><rect codeLine="83" fill="#F1F1F1" height="107.4844" id="Status - StatusSchema" rx="2.5" ry="2.5" style="stroke:#181818;stroke-width:0.5;" width="439" x="943.8967" y="81"/><text fill="#000000" font-family="sans-serif" font-size="14" lengthAdjust="spacing" textLength="163" x="1081.8967" y="98.9951">Status - StatusSchema</text><line style="stroke:#181818;stroke-width:0.5;" x1="944.8967" x2="1381.8967" y1="107.2969" y2="107.2969"/><ellipse cx="954.8967" cy="120.9453" fill="#000000" rx="3" ry="3" style="stroke:#000000;stroke-width:1.0;"/><text fill="#000000" font-family="sans-serif" font-size="14" lengthAdjust="spacing" textLength="413" x="963.8967" y="124.292">state : ["accepted", "rejected", "deprecated", "pending"]</text><ellipse cx="954.8967" cy="137.2422" fill="#000000" rx="3" ry="3" style="stroke:#000000;stroke-width:1.0;"/><text fill="#000000" font-family="sans-serif" font-size="14" lengthAdjust="spacing" textLength="166" x="963.8967" y="140.5889">requestedBy : ObjectId</text><ellipse cx="954.8967" cy="153.5391" fill="#000000" rx="3" ry="3" style="stroke:#000000;stroke-width:1.0;"/><text fill="#000000" font-family="sans-serif" font-size="14" lengthAdjust="spacing" textLength="181" x="963.8967" y="156.8857">lastModifiedBy : ObjectId</text><ellipse cx="954.8967" cy="169.8359" fill="#000000" rx="3" ry="3" style="stroke:#000000;stroke-width:1.0;"/><text fill="#000000" font-family="sans-serif" font-size="14" lengthAdjust="spacing" textLength="120" x="963.8967" y="173.1826">message : String</text><line style="stroke:#181818;stroke-width:0.5;" x1="944.8967" x2="1381.8967" y1="180.4844" y2="180.4844"/></g><!--class Media - MediaSchema--><g id="elem_Media - MediaSchema"><rect codeLine="90" fill="#F1F1F1" height="123.7813" id="Media - MediaSchema" rx="2.5" ry="2.5" style="stroke:#181818;stroke-width:0.5;" width="165" x="1417.8967" y="72.5"/><text fill="#000000" font-family="sans-serif" font-size="14" lengthAdjust="spacing" textLength="155" x="1422.8967" y="90.4951">Media - MediaSchema</text><line style="stroke:#181818;stroke-width:0.5;" x1="1418.8967" x2="1581.8967" y1="98.7969" y2="98.7969"/><ellipse cx="1428.8967" cy="112.4453" fill="#000000" rx="3" ry="3" style="stroke:#000000;stroke-width:1.0;"/><text fill="#000000" font-family="sans-serif" font-size="14" lengthAdjust="spacing" textLength="88" x="1437.8967" y="115.792">title : String</text><ellipse cx="1428.8967" cy="128.7422" fill="#000000" rx="3" ry="3" style="stroke:#000000;stroke-width:1.0;"/><text fill="#000000" font-family="sans-serif" font-size="14" lengthAdjust="spacing" textLength="76" x="1437.8967" y="132.0889">alt : String</text><ellipse cx="1428.8967" cy="145.0391" fill="#000000" rx="3" ry="3" style="stroke:#000000;stroke-width:1.0;"/><text fill="#000000" font-family="sans-serif" font-size="14" lengthAdjust="spacing" textLength="139" x="1437.8967" y="148.3857">description : String</text><ellipse cx="1428.8967" cy="161.3359" fill="#000000" rx="3" ry="3" style="stroke:#000000;stroke-width:1.0;"/><text fill="#000000" font-family="sans-serif" font-size="14" lengthAdjust="spacing" textLength="91" x="1437.8967" y="164.6826">path : String</text><ellipse cx="1428.8967" cy="177.6328" fill="#000000" rx="3" ry="3" style="stroke:#000000;stroke-width:1.0;"/><text fill="#000000" font-family="sans-serif" font-size="14" lengthAdjust="spacing" textLength="60" x="1437.8967" y="180.9795">licence :</text><line style="stroke:#181818;stroke-width:0.5;" x1="1418.8967" x2="1581.8967" y1="188.2813" y2="188.2813"/></g><!--class Member - MemberSchema--><g id="elem_Member - MemberSchema"><rect codeLine="98" fill="#F1F1F1" height="91.1875" id="Member - MemberSchema" rx="2.5" ry="2.5" style="stroke:#181818;stroke-width:0.5;" width="249" x="1038.8967" y="403.5"/><text fill="#000000" font-family="sans-serif" font-size="14" lengthAdjust="spacing" textLength="191" x="1067.8967" y="421.4951">Member - MemberSchema</text><line style="stroke:#181818;stroke-width:0.5;" x1="1039.8967" x2="1286.8967" y1="429.7969" y2="429.7969"/><ellipse cx="1049.8967" cy="443.4453" fill="#000000" rx="3" ry="3" style="stroke:#000000;stroke-width:1.0;"/><text fill="#000000" font-family="sans-serif" font-size="14" lengthAdjust="spacing" textLength="137" x="1058.8967" y="446.792">member : ObjectId</text><line style="stroke:#181818;stroke-width:0.5;" x1="1039.8967" x2="1286.8967" y1="454.0938" y2="454.0938"/><ellipse cx="1049.8967" cy="467.7422" fill="#000000" rx="3" ry="3" style="stroke:#000000;stroke-width:1.0;"/><text fill="#000000" font-family="sans-serif" font-size="14" lengthAdjust="spacing" textLength="193" x="1058.8967" y="471.0889">role : Object (RoleSchema)</text><ellipse cx="1049.8967" cy="484.0391" fill="#000000" rx="3" ry="3" style="stroke:#000000;stroke-width:1.0;"/><text fill="#000000" font-family="sans-serif" font-size="14" lengthAdjust="spacing" textLength="223" x="1058.8967" y="487.3857">status : Object (StatusSchema)</text></g><!--class Role - RoleSchema--><g id="elem_Role - RoleSchema"><rect codeLine="104" fill="#F1F1F1" height="74.8906" id="Role - RoleSchema" rx="2.5" ry="2.5" style="stroke:#181818;stroke-width:0.5;" width="141" x="1322.8967" y="411.5"/><text fill="#000000" font-family="sans-serif" font-size="14" lengthAdjust="spacing" textLength="135" x="1325.8967" y="429.4951">Role - RoleSchema</text><line style="stroke:#181818;stroke-width:0.5;" x1="1323.8967" x2="1462.8967" y1="437.7969" y2="437.7969"/><ellipse cx="1333.8967" cy="451.4453" fill="#000000" rx="3" ry="3" style="stroke:#000000;stroke-width:1.0;"/><text fill="#000000" font-family="sans-serif" font-size="14" lengthAdjust="spacing" textLength="99" x="1342.8967" y="454.792">group : String</text><ellipse cx="1333.8967" cy="467.7422" fill="#000000" rx="3" ry="3" style="stroke:#000000;stroke-width:1.0;"/><text fill="#000000" font-family="sans-serif" font-size="14" lengthAdjust="spacing" textLength="88" x="1342.8967" y="471.0889">title : String</text><line style="stroke:#181818;stroke-width:0.5;" x1="1323.8967" x2="1462.8967" y1="478.3906" y2="478.3906"/></g><!--class TaxonomiesCategoriesEnum--><g id="elem_TaxonomiesCategoriesEnum"><rect codeLine="112" fill="#F1F1F1" height="107.4844" id="TaxonomiesCategoriesEnum" rx="2.5" ry="2.5" style="stroke:#181818;stroke-width:0.5;" width="221" x="1639.8967" y="81"/><text fill="#000000" font-family="sans-serif" font-size="14" lengthAdjust="spacing" textLength="204" x="1648.3967" y="98.9951">TaxonomiesCategoriesEnum</text><line style="stroke:#181818;stroke-width:0.5;" x1="1640.8967" x2="1859.8967" y1="107.2969" y2="107.2969"/><text fill="#000000" font-family="sans-serif" font-size="14" lengthAdjust="spacing" textLength="209" x="1645.8967" y="124.292">Occupations = "occupations"</text><text fill="#000000" font-family="sans-serif" font-size="14" lengthAdjust="spacing" textLength="155" x="1645.8967" y="140.5889">Domains = "domains"</text><text fill="#000000" font-family="sans-serif" font-size="14" lengthAdjust="spacing" textLength="149" x="1645.8967" y="156.8857">Abilities = "abilities"</text><text fill="#000000" font-family="sans-serif" font-size="14" lengthAdjust="spacing" textLength="105" x="1645.8967" y="173.1826">Skills = "skills"</text><line style="stroke:#181818;stroke-width:0.5;" x1="1640.8967" x2="1859.8967" y1="180.4844" y2="180.4844"/></g><!--class fileTypeList--><g id="elem_fileTypeList"><rect codeLine="119" fill="#F1F1F1" height="91.1875" id="fileTypeList" rx="2.5" ry="2.5" style="stroke:#181818;stroke-width:0.5;" width="91" x="1895.8967" y="89"/><text fill="#000000" font-family="sans-serif" font-size="14" lengthAdjust="spacing" textLength="85" x="1898.8967" y="106.9951">fileTypeList</text><line style="stroke:#181818;stroke-width:0.5;" x1="1896.8967" x2="1985.8967" y1="115.2969" y2="115.2969"/><text fill="#000000" font-family="sans-serif" font-size="14" lengthAdjust="spacing" textLength="44" x="1901.8967" y="132.292">image</text><text fill="#000000" font-family="sans-serif" font-size="14" lengthAdjust="spacing" textLength="39" x="1901.8967" y="148.5889">video</text><text fill="#000000" font-family="sans-serif" font-size="14" lengthAdjust="spacing" textLength="42" x="1901.8967" y="164.8857">sound</text><line style="stroke:#181818;stroke-width:0.5;" x1="1896.8967" x2="1985.8967" y1="172.1875" y2="172.1875"/></g><!--class fileExtensionImage--><g id="elem_fileExtensionImage"><rect codeLine="125" fill="#F1F1F1" height="140.0781" id="fileExtensionImage" rx="2.5" ry="2.5" style="stroke:#181818;stroke-width:0.5;" width="144" x="2022.3967" y="64.5"/><text fill="#000000" font-family="sans-serif" font-size="14" lengthAdjust="spacing" textLength="138" x="2025.3967" y="82.4951">fileExtensionImage</text><line style="stroke:#181818;stroke-width:0.5;" x1="2023.3967" x2="2165.3967" y1="90.7969" y2="90.7969"/><text fill="#000000" font-family="sans-serif" font-size="14" lengthAdjust="spacing" textLength="28" x="2028.3967" y="107.792">png</text><text fill="#000000" font-family="sans-serif" font-size="14" lengthAdjust="spacing" textLength="23" x="2028.3967" y="124.0889">jpg</text><text fill="#000000" font-family="sans-serif" font-size="14" lengthAdjust="spacing" textLength="32" x="2028.3967" y="140.3857">jpeg</text><text fill="#000000" font-family="sans-serif" font-size="14" lengthAdjust="spacing" textLength="19" x="2028.3967" y="156.6826">gif</text><text fill="#000000" font-family="sans-serif" font-size="14" lengthAdjust="spacing" textLength="24" x="2028.3967" y="172.9795">svg</text><text fill="#000000" font-family="sans-serif" font-size="14" lengthAdjust="spacing" textLength="40" x="2028.3967" y="189.2764">webp</text><line style="stroke:#181818;stroke-width:0.5;" x1="2023.3967" x2="2165.3967" y1="196.5781" y2="196.5781"/></g><!--class fileExtensionVideo--><g id="elem_fileExtensionVideo"><rect codeLine="134" fill="#F1F1F1" height="58.5938" id="fileExtensionVideo" rx="2.5" ry="2.5" style="stroke:#181818;stroke-width:0.5;" width="141" x="1652.8967" y="419.5"/><text fill="#000000" font-family="sans-serif" font-size="14" lengthAdjust="spacing" textLength="135" x="1655.8967" y="437.4951">fileExtensionVideo</text><line style="stroke:#181818;stroke-width:0.5;" x1="1653.8967" x2="1792.8967" y1="445.7969" y2="445.7969"/><text fill="#000000" font-family="sans-serif" font-size="14" lengthAdjust="spacing" textLength="32" x="1658.8967" y="462.792">mp4</text><line style="stroke:#181818;stroke-width:0.5;" x1="1653.8967" x2="1792.8967" y1="470.0938" y2="470.0938"/></g><!--class fileExtensionSound--><g id="elem_fileExtensionSound"><rect codeLine="138" fill="#F1F1F1" height="74.8906" id="fileExtensionSound" rx="2.5" ry="2.5" style="stroke:#181818;stroke-width:0.5;" width="144" x="1829.3967" y="411.5"/><text fill="#000000" font-family="sans-serif" font-size="14" lengthAdjust="spacing" textLength="138" x="1832.3967" y="429.4951">fileExtensionSound</text><line style="stroke:#181818;stroke-width:0.5;" x1="1830.3967" x2="1972.3967" y1="437.7969" y2="437.7969"/><text fill="#000000" font-family="sans-serif" font-size="14" lengthAdjust="spacing" textLength="27" x="1835.3967" y="454.792">wav</text><text fill="#000000" font-family="sans-serif" font-size="14" lengthAdjust="spacing" textLength="33" x="1835.3967" y="471.0889">mp3</text><line style="stroke:#181818;stroke-width:0.5;" x1="1830.3967" x2="1972.3967" y1="478.3906" y2="478.3906"/></g><!--class licenceList--><g id="elem_licenceList"><rect codeLine="143" fill="#F1F1F1" height="172.6719" id="licenceList" rx="2.5" ry="2.5" style="stroke:#181818;stroke-width:0.5;" width="157" x="2008.8967" y="362.5"/><text fill="#000000" font-family="sans-serif" font-size="14" lengthAdjust="spacing" textLength="77" x="2048.8967" y="380.4951">licenceList</text><line style="stroke:#181818;stroke-width:0.5;" x1="2009.8967" x2="2164.8967" y1="388.7969" y2="388.7969"/><text fill="#000000" font-family="sans-serif" font-size="14" lengthAdjust="spacing" textLength="42" x="2014.8967" y="405.792">CC By</text><text fill="#000000" font-family="sans-serif" font-size="14" lengthAdjust="spacing" textLength="67" x="2014.8967" y="422.0889">CC By-SA</text><text fill="#000000" font-family="sans-serif" font-size="14" lengthAdjust="spacing" textLength="69" x="2014.8967" y="438.3857">CC By-ND</text><text fill="#000000" font-family="sans-serif" font-size="14" lengthAdjust="spacing" textLength="68" x="2014.8967" y="454.6826">CC By-NC</text><text fill="#000000" font-family="sans-serif" font-size="14" lengthAdjust="spacing" textLength="93" x="2014.8967" y="470.9795">CC By-NC-SA</text><text fill="#000000" font-family="sans-serif" font-size="14" lengthAdjust="spacing" textLength="95" x="2014.8967" y="487.2764">CC By-NC-ND</text><text fill="#000000" font-family="sans-serif" font-size="14" lengthAdjust="spacing" textLength="126" x="2014.8967" y="503.5732">Copyright to user</text><line style="stroke:#181818;stroke-width:0.5;" x1="2009.8967" x2="2164.8967" y1="510.875" y2="510.875"/><text fill="#000000" font-family="sans-serif" font-size="14" lengthAdjust="spacing" textLength="145" x="2014.8967" y="527.8701">Public Domain (CC0)</text></g><!--reverse link pers to taxo--><g id="link_pers_taxo"><path codeLine="156" d="M762.2057,492.781 C783.9387,504.48 767.3757,550.424 748.3967,579 C681.3827,679.897 566.0297,587.017 498.3967,687.5 C487.8467,703.174 478.5027,730 497.3967,730 " fill="none" id="pers-backto-taxo" style="stroke:#181818;stroke-width:1.0;"/><polygon fill="none" points="749.3967,490,754.4118,495.1815,761.1237,492.545,756.1085,487.3635,749.3967,490" style="stroke:#181818;stroke-width:1.0;"/></g><!--reverse link org to taxo--><g id="link_org_taxo"><path codeLine="157" d="M448.3967,851 C506.4167,851 439.3767,730 497.3967,730 " fill="none" id="org-backto-taxo" style="stroke:#181818;stroke-width:1.0;"/><polygon fill="none" points="448.3967,851,454.3967,855,460.3967,851,454.3967,847,448.3967,851" style="stroke:#181818;stroke-width:1.0;"/></g><!--reverse link usrhst to usr--><g id="link_usrhst_usr"><path codeLine="158" d="M393.3577,109.356 C428.5757,121.053 402.7127,185.43 379.3967,228 C331.2527,315.901 239.2207,263.475 190.3967,351 C181.3007,367.306 170.7247,393 189.3967,393 " fill="none" id="usrhst-backto-usr" style="stroke:#181818;stroke-width:1.0;"/><polygon fill="#181818" points="380.3967,107.5,385.769,112.3102,392.2755,109.2011,386.9031,104.391,380.3967,107.5" style="stroke:#181818;stroke-width:1.0;"/></g><!--link Entity to usrhst--><g id="link_Entity_usrhst"><path codeLine="159" d="M139.3276,439.244 C138.6498,438.4996 137.9344,437.7119 137.1833,436.8827 C131.1744,430.2489 122.8821,420.9547 113.3126,409.849 C94.1735,387.6377 69.9253,358.1802 48.6168,328.2676 C6,268.4425 21.4444,197.569 21.4444,197.569 " fill="none" id="Entity-usrhst" style="stroke:#181818;stroke-width:1.0;"/><polygon fill="#181818" points="139.3276,439.244,136.2262,429.8962,135.9614,435.5469,130.3108,435.2821,139.3276,439.244" style="stroke:#181818;stroke-width:1.0;"/><polygon fill="#181818" points="33.3967,196.5,27.0642,193.0504,21.4444,197.569,27.7769,201.0186,33.3967,196.5" style="stroke:#181818;stroke-width:1.0;"/></g><!--reverse link pers to org--><g id="link_pers_org"><path codeLine="160" d="M457.4327,369.486 C428.2567,432.645 496.0677,827 448.3967,827 " fill="none" id="pers-backto-org" style="stroke:#181818;stroke-width:1.0;"/><polygon fill="none" points="467.3967,361,460.2352,361.8448,458.2607,368.7804,465.4221,367.9355,467.3967,361" style="stroke:#181818;stroke-width:1.0;"/></g><!--SRC=[hLPBRniv3BxFhn3caaSpG87koS0MI2S1Da3I1Eksbo1Oo18zLgEHPYMDNQFmVo-bUSkkrm4s1uSYAUhZDnIfiqT5lirppU6AL0Qi9TVIaNVaXZXDx4fll7OjO4FqabIIAlVruJv9afNWG9WmJ49IKVPA2o2toWct9JyJGg0HqoSmLgkKK4ig58EDaCj_12SpyhZu3ipTyQ3BiiOagNMVQGbedpiZLD6eby9q-h7QohheFSbvxvLrOIuQFoNOwu6e72mped92gyXY7NMrxK6IytbGpDaAIdenGQmPgolgOtZ_eFD_FybW67Azwkt7Jo2xoHab5Ugkz2GF_W_01Hq3mfzTCYB_2_sXbIwtWNw7YnFePzH1eSrsH6eRHe3D6oDAjwekEshtQOs-YXg-mn72TMqOlFKhJF9zD0LLmWR6GyxQ52Ua_3ybK1iPQPXMZZBtf8LoSJbhnGFE6wGKRVxVcmlF0ItHyNaeY781flLycTReSkcltxGylIucvRyhSzVGFkBzgmKJ-AwjEO7l6jqFS8wnHSnWHQtTQCCZDLrJHqsaL4URnaJ_cnvZj9oeTickxsttkh2JpkQJ_ajOXtUbotrbtOdf_yucgclEGnUU8Yir5ykzKi7Q6fSXUKwP0RIcLoIjAzvA72IWzDAo7E3dMafW1ueu72I0jwqyWec4WkH3PRGSzIGr5JBbgQaTaf5n4QKTJxxKV5BFAMKCAWVSGpRWepSo1nn0lYk5LGMA8zWk6mF_rc3HzcaVg__83sqw1ymbijpqqz7t7k4EtHLXZxfiZnezP5myLBgJXmiEXLLSaeA12lrl7uY_rG79SBrxA6LZZRDhIxcxm7_ZSjn1tjXO_NO4C4JfZo-ChgiebJrs9ZNY9yUz23TbVrJjpPZkeCVHZFsJfAEHcmRxZVOJCjXu8pRwwuMGmc4mRw7Teh7DNuMKmM23bCPfBuM4BziAFDmE2272Z-5MNkChIBSo3Z353uMu_U50MSGQ1lWGg6e98-HxDKZGYOLOTf7NdMu3Y-he4TyyeE68ilhZgFlSOnxSDtJTR_mGRsmhT4p6Kxr0RKi-ES_pzqrvvJdvj1saR7uzMdo-6I_ooIBop7jdNMsDA5RElqfz0-sgwio0REeWyU_BsMpy6DEPoSAxPpR3VfpWQm3jpI2CJ4tpdir2RxxCCj_DfvQeCLvcCllOFdZRattBrxWr7ED7CwAxKsjXnGAlWnJgrU83LPkIkelaBBo6isTyHdDGBpniYxKcuFW5]--></g></svg>