<?xml version="1.0" encoding="UTF-8" standalone="no"?><svg xmlns="http://www.w3.org/2000/svg" xmlns:xlink="http://www.w3.org/1999/xlink" contentStyleType="text/css" height="793px" preserveAspectRatio="none" style="width:726px;height:793px;background:#FFFFFF;" version="1.1" viewBox="0 0 726 793" width="726px" zoomAndPan="magnify"><defs/><g><!--MD5=[fcfdc41e9e8661e0b08e1357fb9c5ed1]
cluster Entity--><g id="cluster_Entity"><path d="M23.709,259 L73.709,259 A3.75,3.75 0 0 1 76.209,261.5 L83.209,281.2969 L716.709,281.2969 A2.5,2.5 0 0 1 719.209,283.7969 L719.209,783.5 A2.5,2.5 0 0 1 716.709,786 L23.709,786 A2.5,2.5 0 0 1 21.209,783.5 L21.209,261.5 A2.5,2.5 0 0 1 23.709,259 " fill="none" style="stroke:#000000;stroke-width:1.5;"/><line style="stroke:#000000;stroke-width:1.5;" x1="21.209" x2="83.209" y1="281.2969" y2="281.2969"/><text fill="#000000" font-family="sans-serif" font-size="14" font-weight="bold" lengthAdjust="spacing" textLength="49" x="25.209" y="273.9951">Entity</text></g><!--MD5=[3c5f7497e87bb810638d9390166cfe10]
cluster Logs--><g id="cluster_Logs"><path d="M150.709,6 L189.709,6 A3.75,3.75 0 0 1 192.209,8.5 L199.209,28.2969 L403.709,28.2969 A2.5,2.5 0 0 1 406.209,30.7969 L406.209,224.5 A2.5,2.5 0 0 1 403.709,227 L150.709,227 A2.5,2.5 0 0 1 148.209,224.5 L148.209,8.5 A2.5,2.5 0 0 1 150.709,6 " fill="none" style="stroke:#000000;stroke-width:1.5;"/><line style="stroke:#000000;stroke-width:1.5;" x1="148.209" x2="199.209" y1="28.2969" y2="28.2969"/><text fill="#000000" font-family="sans-serif" font-size="14" font-weight="bold" lengthAdjust="spacing" textLength="38" x="152.209" y="20.9951">Logs</text></g><!--MD5=[16d980cd5de8741a2952426876cb2cc0]
class pers--><g id="elem_pers"><rect codeLine="6" fill="#F1F1F1" height="164.375" id="pers" rx="2.5" ry="2.5" style="stroke:#181818;stroke-width:0.5;" width="269" x="72.709" y="306"/><text fill="#000000" font-family="sans-serif" font-size="14" lengthAdjust="spacing" textLength="49" x="182.709" y="323.9951">Person</text><line style="stroke:#181818;stroke-width:0.5;" x1="73.709" x2="340.709" y1="332.2969" y2="332.2969"/><ellipse cx="83.709" cy="345.9453" fill="#000000" rx="3" ry="3" style="stroke:#000000;stroke-width:1.0;"/><text fill="#000000" font-family="sans-serif" font-size="14" lengthAdjust="spacing" textLength="95" x="92.709" y="349.292">_id : ObjectId</text><line style="stroke:#181818;stroke-width:1.0;" x1="73.709" x2="340.709" y1="356.5938" y2="356.5938"/><ellipse cx="83.709" cy="370.2422" fill="#000000" rx="3" ry="3" style="stroke:#000000;stroke-width:1.0;"/><text fill="#000000" font-family="sans-serif" font-size="14" lengthAdjust="spacing" textLength="124" x="92.709" y="373.5889">lastName : String</text><ellipse cx="83.709" cy="386.5391" fill="#000000" rx="3" ry="3" style="stroke:#000000;stroke-width:1.0;"/><text fill="#000000" font-family="sans-serif" font-size="14" lengthAdjust="spacing" textLength="124" x="92.709" y="389.8857">firstName :String</text><ellipse cx="83.709" cy="402.8359" fill="#000000" rx="3" ry="3" style="stroke:#000000;stroke-width:1.0;"/><text fill="#000000" font-family="sans-serif" font-size="14" lengthAdjust="spacing" textLength="243" x="92.709" y="406.1826">slug : String (firstName-lastName)</text><ellipse cx="83.709" cy="419.1328" fill="#000000" rx="3" ry="3" style="stroke:#000000;stroke-width:1.0;"/><text fill="#000000" font-family="sans-serif" font-size="14" lengthAdjust="spacing" textLength="128" x="92.709" y="422.4795">nickName : String</text><ellipse cx="83.709" cy="435.4297" fill="#000000" rx="3" ry="3" style="stroke:#000000;stroke-width:1.0;"/><text fill="#000000" font-family="sans-serif" font-size="14" lengthAdjust="spacing" textLength="139" x="92.709" y="438.7764">description : String</text><line style="stroke:#181818;stroke-width:1.0;" x1="73.709" x2="340.709" y1="446.0781" y2="446.0781"/><ellipse cx="83.709" cy="459.7266" fill="#000000" rx="3" ry="3" style="stroke:#000000;stroke-width:1.0;"/><text fill="#000000" font-family="sans-serif" font-size="14" lengthAdjust="spacing" textLength="180" x="92.709" y="463.0732">occupations : [ ObjectId ]</text></g><!--MD5=[4b7eb2a1eef091f0c109f7405c2fff49]
class taxo--><g id="elem_taxo"><rect codeLine="18" fill="#F1F1F1" height="221.5625" id="taxo" rx="2.5" ry="2.5" style="stroke:#181818;stroke-width:0.5;" width="395" x="291.709" y="538"/><text fill="#000000" font-family="sans-serif" font-size="14" lengthAdjust="spacing" textLength="74" x="452.209" y="555.9951">Taxonomy</text><line style="stroke:#181818;stroke-width:0.5;" x1="292.709" x2="685.709" y1="564.2969" y2="564.2969"/><ellipse cx="302.709" cy="577.9453" fill="#000000" rx="3" ry="3" style="stroke:#000000;stroke-width:1.0;"/><text fill="#000000" font-family="sans-serif" font-size="14" lengthAdjust="spacing" textLength="95" x="311.709" y="581.292">_id : ObjectId</text><line style="stroke:#181818;stroke-width:1.0;" x1="292.709" x2="685.709" y1="588.5938" y2="588.5938"/><ellipse cx="302.709" cy="602.2422" fill="#000000" rx="3" ry="3" style="stroke:#000000;stroke-width:1.0;"/><text fill="#000000" font-family="sans-serif" font-size="14" lengthAdjust="spacing" textLength="170" x="311.709" y="605.5889">category : String enum:</text><text fill="#000000" font-family="sans-serif" font-size="14" lengthAdjust="spacing" textLength="329" x="311.709" y="621.8857">["occupations", "domains", "abilities", "skills"]</text><ellipse cx="302.709" cy="634.8359" fill="#000000" rx="3" ry="3" style="stroke:#000000;stroke-width:1.0;"/><text fill="#000000" font-family="sans-serif" font-size="14" lengthAdjust="spacing" textLength="97" x="311.709" y="638.1826">name : String</text><ellipse cx="302.709" cy="651.1328" fill="#000000" rx="3" ry="3" style="stroke:#000000;stroke-width:1.0;"/><text fill="#000000" font-family="sans-serif" font-size="14" lengthAdjust="spacing" textLength="139" x="311.709" y="654.4795">slug : String (name)</text><ellipse cx="302.709" cy="667.4297" fill="#000000" rx="3" ry="3" style="stroke:#000000;stroke-width:1.0;"/><text fill="#000000" font-family="sans-serif" font-size="14" lengthAdjust="spacing" textLength="139" x="311.709" y="670.7764">description : String</text><ellipse cx="302.709" cy="683.7266" fill="#000000" rx="3" ry="3" style="stroke:#000000;stroke-width:1.0;"/><text fill="#000000" font-family="sans-serif" font-size="14" lengthAdjust="spacing" textLength="104" x="311.709" y="687.0732">source : String</text><ellipse cx="302.709" cy="700.0234" fill="#000000" rx="3" ry="3" style="stroke:#000000;stroke-width:1.0;"/><text fill="#000000" font-family="sans-serif" font-size="14" lengthAdjust="spacing" textLength="150" x="311.709" y="703.3701">status : String enum:</text><text fill="#000000" font-family="sans-serif" font-size="14" lengthAdjust="spacing" textLength="369" x="311.709" y="719.667">["accepted", "pending", "rejected", "deprecated"]</text><ellipse cx="302.709" cy="732.6172" fill="#000000" rx="3" ry="3" style="stroke:#000000;stroke-width:1.0;"/><text fill="#000000" font-family="sans-serif" font-size="14" lengthAdjust="spacing" textLength="135" x="311.709" y="735.9639">addReason : String</text><text fill="#000000" font-family="sans-serif" font-size="14" lengthAdjust="spacing" textLength="4" x="311.709" y="752.2607"> </text></g><!--MD5=[46ee3b214b8888a13ae7c95775684973]
class org--><g id="elem_org"><rect codeLine="33" fill="#F1F1F1" height="164.375" id="org" rx="2.5" ry="2.5" style="stroke:#181818;stroke-width:0.5;" width="179" x="61.709" y="566"/><text fill="#000000" font-family="sans-serif" font-size="14" lengthAdjust="spacing" textLength="91" x="105.709" y="583.9951">Organisation</text><line style="stroke:#181818;stroke-width:0.5;" x1="62.709" x2="239.709" y1="592.2969" y2="592.2969"/><ellipse cx="72.709" cy="605.9453" fill="#000000" rx="3" ry="3" style="stroke:#000000;stroke-width:1.0;"/><text fill="#000000" font-family="sans-serif" font-size="14" lengthAdjust="spacing" textLength="95" x="81.709" y="609.292">_id : ObjectId</text><line style="stroke:#181818;stroke-width:1.0;" x1="62.709" x2="239.709" y1="616.5938" y2="616.5938"/><ellipse cx="72.709" cy="630.2422" fill="#000000" rx="3" ry="3" style="stroke:#000000;stroke-width:1.0;"/><text fill="#000000" font-family="sans-serif" font-size="14" lengthAdjust="spacing" textLength="97" x="81.709" y="633.5889">name : String</text><ellipse cx="72.709" cy="646.5391" fill="#000000" rx="3" ry="3" style="stroke:#000000;stroke-width:1.0;"/><text fill="#000000" font-family="sans-serif" font-size="14" lengthAdjust="spacing" textLength="139" x="81.709" y="649.8857">slug : String (name)</text><ellipse cx="72.709" cy="662.8359" fill="#000000" rx="3" ry="3" style="stroke:#000000;stroke-width:1.0;"/><text fill="#000000" font-family="sans-serif" font-size="14" lengthAdjust="spacing" textLength="139" x="81.709" y="666.1826">description : String</text><ellipse cx="72.709" cy="679.1328" fill="#000000" rx="3" ry="3" style="stroke:#000000;stroke-width:1.0;"/><text fill="#000000" font-family="sans-serif" font-size="14" lengthAdjust="spacing" textLength="75" x="81.709" y="682.4795">url : String</text><ellipse cx="72.709" cy="695.4297" fill="#000000" rx="3" ry="3" style="stroke:#000000;stroke-width:1.0;"/><text fill="#000000" font-family="sans-serif" font-size="14" lengthAdjust="spacing" textLength="153" x="81.709" y="698.7764">fondationDate : Date</text><line style="stroke:#181818;stroke-width:1.0;" x1="62.709" x2="239.709" y1="706.0781" y2="706.0781"/><ellipse cx="72.709" cy="719.7266" fill="#000000" rx="3" ry="3" style="stroke:#000000;stroke-width:1.0;"/><text fill="#000000" font-family="sans-serif" font-size="14" lengthAdjust="spacing" textLength="128" x="81.709" y="723.0732">offers : [ObjectId]</text></g><!--MD5=[060038576528f0c4b2c15310f760dccd]
class usr--><g id="elem_usr"><rect codeLine="46" fill="#F1F1F1" height="156.375" id="usr" rx="2.5" ry="2.5" style="stroke:#181818;stroke-width:0.5;" width="153" x="392.709" y="310.5"/><text fill="#000000" font-family="sans-serif" font-size="14" lengthAdjust="spacing" textLength="31" x="453.709" y="328.4951">User</text><line style="stroke:#181818;stroke-width:0.5;" x1="393.709" x2="544.709" y1="336.7969" y2="336.7969"/><ellipse cx="403.709" cy="350.4453" fill="#000000" rx="3" ry="3" style="stroke:#000000;stroke-width:1.0;"/><text fill="#000000" font-family="sans-serif" font-size="14" lengthAdjust="spacing" textLength="95" x="412.709" y="353.792">_id : ObjectId</text><line style="stroke:#181818;stroke-width:1.0;" x1="393.709" x2="544.709" y1="361.0938" y2="361.0938"/><ellipse cx="403.709" cy="374.7422" fill="#000000" rx="3" ry="3" style="stroke:#000000;stroke-width:1.0;"/><text fill="#000000" font-family="sans-serif" font-size="14" lengthAdjust="spacing" textLength="127" x="412.709" y="378.0889">username : String</text><ellipse cx="403.709" cy="391.0391" fill="#000000" rx="3" ry="3" style="stroke:#000000;stroke-width:1.0;"/><text fill="#000000" font-family="sans-serif" font-size="14" lengthAdjust="spacing" textLength="96" x="412.709" y="394.3857">email : String</text><ellipse cx="403.709" cy="407.3359" fill="#000000" rx="3" ry="3" style="stroke:#000000;stroke-width:1.0;"/><text fill="#000000" font-family="sans-serif" font-size="14" lengthAdjust="spacing" textLength="124" x="412.709" y="410.6826">password : String</text><ellipse cx="403.709" cy="423.6328" fill="#000000" rx="3" ry="3" style="stroke:#000000;stroke-width:1.0;"/><text fill="#000000" font-family="sans-serif" font-size="14" lengthAdjust="spacing" textLength="102" x="412.709" y="426.9795">avatar : String</text><ellipse cx="403.709" cy="439.9297" fill="#000000" rx="3" ry="3" style="stroke:#000000;stroke-width:1.0;"/><text fill="#000000" font-family="sans-serif" font-size="14" lengthAdjust="spacing" textLength="97" x="412.709" y="443.2764">name : String</text><ellipse cx="403.709" cy="456.2266" fill="#000000" rx="3" ry="3" style="stroke:#000000;stroke-width:1.0;"/><text fill="#000000" font-family="sans-serif" font-size="14" lengthAdjust="spacing" textLength="85" x="412.709" y="459.5732">role : String</text></g><!--MD5=[c31abed9f28a71c3d5d342c6b4166b92]
class usrhst--><g id="elem_usrhst"><rect codeLine="58" fill="#F1F1F1" height="164.375" id="usrhst" rx="2.5" ry="2.5" style="stroke:#181818;stroke-width:0.5;" width="209" x="172.709" y="45"/><text fill="#000000" font-family="sans-serif" font-size="14" lengthAdjust="spacing" textLength="82" x="236.209" y="62.9951">UserHistory</text><line style="stroke:#181818;stroke-width:0.5;" x1="173.709" x2="380.709" y1="71.2969" y2="71.2969"/><ellipse cx="183.709" cy="84.9453" fill="#000000" rx="3" ry="3" style="stroke:#000000;stroke-width:1.0;"/><text fill="#000000" font-family="sans-serif" font-size="14" lengthAdjust="spacing" textLength="95" x="192.709" y="88.292">_id : ObjectId</text><line style="stroke:#181818;stroke-width:1.0;" x1="173.709" x2="380.709" y1="95.5938" y2="95.5938"/><ellipse cx="183.709" cy="109.2422" fill="#000000" rx="3" ry="3" style="stroke:#000000;stroke-width:1.0;"/><text fill="#000000" font-family="sans-serif" font-size="14" lengthAdjust="spacing" textLength="105" x="192.709" y="112.5889">user : ObjectId</text><line style="stroke:#181818;stroke-width:1.0;" x1="173.709" x2="380.709" y1="119.8906" y2="119.8906"/><ellipse cx="183.709" cy="133.5391" fill="#000000" rx="3" ry="3" style="stroke:#000000;stroke-width:1.0;"/><text fill="#000000" font-family="sans-serif" font-size="14" lengthAdjust="spacing" textLength="128" x="192.709" y="136.8857">ipAddress : String</text><ellipse cx="183.709" cy="149.8359" fill="#000000" rx="3" ry="3" style="stroke:#000000;stroke-width:1.0;"/><text fill="#000000" font-family="sans-serif" font-size="14" lengthAdjust="spacing" textLength="125" x="192.709" y="153.1826">modifDate : Date</text><ellipse cx="183.709" cy="166.1328" fill="#000000" rx="3" ry="3" style="stroke:#000000;stroke-width:1.0;"/><text fill="#000000" font-family="sans-serif" font-size="14" lengthAdjust="spacing" textLength="102" x="192.709" y="169.4795">action : String</text><ellipse cx="183.709" cy="182.4297" fill="#000000" rx="3" ry="3" style="stroke:#000000;stroke-width:1.0;"/><text fill="#000000" font-family="sans-serif" font-size="14" lengthAdjust="spacing" textLength="183" x="192.709" y="185.7764">modifiedEntity : ObjectId</text><ellipse cx="183.709" cy="198.7266" fill="#000000" rx="3" ry="3" style="stroke:#000000;stroke-width:1.0;"/><text fill="#000000" font-family="sans-serif" font-size="14" lengthAdjust="spacing" textLength="101" x="192.709" y="202.0732">fields : Object</text></g><!--MD5=[1fdcdbf40631cf850d181aca4d4d99d6]
reverse link pers to taxo--><g id="link_pers_taxo"><path codeLine="72" d="M343.446,471.077 C343.006,472.083 342.579,473.069 342.209,474 C329.379,506.254 304.414,501.504 292.209,534 C285.644,551.48 272.537,576 291.209,576 " fill="none" id="pers-backto-taxo" style="stroke:#181818;stroke-width:1.0;"/><polygon fill="none" points="343.209,458,339.3191,464.072,343.4279,469.998,347.3178,463.926,343.209,458" style="stroke:#181818;stroke-width:1.0;"/></g><!--MD5=[1cb2fc7562d82ec5237eb4f59f8f4079]
reverse link org to taxo--><g id="link_org_taxo"><path codeLine="73" d="M242.209,718 C308.972,718 224.446,576 291.209,576 " fill="none" id="org-backto-taxo" style="stroke:#181818;stroke-width:1.0;"/><polygon fill="none" points="242.209,718,248.209,722,254.209,718,248.209,714,242.209,718" style="stroke:#181818;stroke-width:1.0;"/></g><!--MD5=[098669f2650a6ad1caf28cd96a278928]
reverse link usrhst to usr--><g id="link_usrhst_usr"><path codeLine="74" d="M394.738,113.225 C419.542,151.104 343.544,349 392.209,349 " fill="none" id="usrhst-backto-usr" style="stroke:#181818;stroke-width:1.0;"/><polygon fill="#181818" points="383.209,107,386.5877,113.3706,393.7678,112.702,390.3891,106.3314,383.209,107" style="stroke:#181818;stroke-width:1.0;"/></g><!--MD5=[f015ab8cd618a22f36c32296d734cd6e]
link Entity to usrhst--><g id="link_Entity_usrhst"><path codeLine="75" d="M21.1305,347.3195 C21.1034,347.1113 21.0764,346.9026 21.0496,346.6934 C20.9423,345.8565 20.8378,345.0112 20.7363,344.158 C20.3305,340.7451 19.9737,337.2054 19.6874,333.5689 C17.3965,304.4765 19.6094,269.1835 37.209,243 C71.719,191.659 160.2097,179.1253 160.2097,179.1253 " fill="none" id="Entity-usrhst" style="stroke:#181818;stroke-width:1.0;"/><polygon fill="#181818" points="21.1305,347.3195,23.9328,337.8777,20.4838,342.3615,16,338.9125,21.1305,347.3195" style="stroke:#181818;stroke-width:1.0;"/><polygon fill="#181818" points="172.209,179,166.1676,175.0629,160.2097,179.1253,166.2511,183.0624,172.209,179" style="stroke:#181818;stroke-width:1.0;"/></g><!--MD5=[ea675b342396bc8890be579aae1c79ba]
link pers to org--><!--MD5=[61e1a76865b83c8b7583f7e605f2d686]
link pers to usr--><!--MD5=[936e9659042be704ee0246b78f45bc2c]
@startuml
'On VSCode, press Alt + D to show preview of plantUML


hide circle
package Entity {
  entity "Person" as pers {
    *_id : ObjectId
    - -
    *lastName : String
    *firstName :String
    *slug : String (firstName-lastName)
    *nickName : String
    *description : String
    - -
    *occupations : [ ObjectId ]
  }

  entity "Taxonomy" as taxo {
    *_id : ObjectId
    - -
    *category : String enum:
    ["occupations", "domains", "abilities", "skills"]
    *name : String
    *slug : String (name)
    *description : String
    *source : String
    *status : String enum:
      ["Accepted", "Pending", "Rejected", "deprecated"]
    *addReason : String

  }

  entity "Organisation" as org {
    *_id : ObjectId
    - -
    *name : String
    *slug : String (name)
    *description : String
    *url : String
    *fondationDate : Date
    - -
    *offers : [ObjectId]
  }


  entity "User" as usr {
    *_id : ObjectId
    - -
    *username : String
    *email : String
    *password : String
    *avatar : String
    *name : String
    *role : String
  }
}
package Logs {
  entity "UserHistory" as usrhst {
    *_id : ObjectId
    - -
    *user : ObjectId
    - -
    *ipAddress : String
    *modifDate : Date
    *action : String
    *modifiedEntity : ObjectId
    *fields : Object
  }
}

'relations
pers::occupations o-r- taxo::_id
org::offers o-r- taxo::_id
usrhst::user *- - usr::_id
usrhst::modifiedEntity *-l-> Entity

'Invisible links (format)
pers -[hidden]d- org
pers -[hidden]r- usr
@enduml

@startuml


hide circle
package Entity {
  entity "Person" as pers {
    *_id : ObjectId
    - -
    *lastName : String
    *firstName :String
    *slug : String (firstName-lastName)
    *nickName : String
    *description : String
    - -
    *occupations : [ ObjectId ]
  }

  entity "Taxonomy" as taxo {
    *_id : ObjectId
    - -
    *category : String enum:
    ["occupations", "domains", "abilities", "skills"]
    *name : String
    *slug : String (name)
    *description : String
    *source : String
    *status : String enum:
      ["accepted", "pending", "rejected", "deprecated"]
    *addReason : String

  }

  entity "Organisation" as org {
    *_id : ObjectId
    - -
    *name : String
    *slug : String (name)
    *description : String
    *url : String
    *fondationDate : Date
    - -
    *offers : [ObjectId]
  }


  entity "User" as usr {
    *_id : ObjectId
    - -
    *username : String
    *email : String
    *password : String
    *avatar : String
    *name : String
    *role : String
  }
}
package Logs {
  entity "UserHistory" as usrhst {
    *_id : ObjectId
    - -
    *user : ObjectId
    - -
    *ipAddress : String
    *modifDate : Date
    *action : String
    *modifiedEntity : ObjectId
    *fields : Object
  }
}

pers::occupations o-r- taxo::_id
org::offers o-r- taxo::_id
usrhst::user *- - usr::_id
usrhst::modifiedEntity *-l-> Entity

pers -[hidden]d- org
pers -[hidden]r- usr
@enduml

PlantUML version 1.2022.13beta2(Unknown compile time)
(GPL source distribution)
Java Runtime: Java(TM) SE Runtime Environment
JVM: Java HotSpot(TM) 64-Bit Server VM
Default Encoding: UTF-8
Language: en
Country: US
--></g></svg>