<?xml version="1.0" encoding="UTF-8" standalone="no"?><svg xmlns="http://www.w3.org/2000/svg" xmlns:xlink="http://www.w3.org/1999/xlink" contentStyleType="text/css" height="939px" preserveAspectRatio="none" style="width:2532px;height:939px;background:#FFFFFF;" version="1.1" viewBox="0 0 2532 939" width="2532px" zoomAndPan="magnify"><defs/><g><!--cluster Entity--><g id="cluster_Entity"><path d="M141.8967,285 L191.8967,285 A3.75,3.75 0 0 1 194.3967,287.5 L201.3967,307.2969 L892.8967,307.2969 A2.5,2.5 0 0 1 895.3967,309.7969 L895.3967,929.5 A2.5,2.5 0 0 1 892.8967,932 L141.8967,932 A2.5,2.5 0 0 1 139.3967,929.5 L139.3967,287.5 A2.5,2.5 0 0 1 141.8967,285 " fill="none" style="stroke:#000000;stroke-width:1.5;"/><line style="stroke:#000000;stroke-width:1.5;" x1="139.3967" x2="201.3967" y1="307.2969" y2="307.2969"/><text fill="#000000" font-family="sans-serif" font-size="14" font-weight="bold" lengthAdjust="spacing" textLength="49" x="143.3967" y="299.9951">Entity</text></g><!--cluster Logs--><g id="cluster_Logs"><path d="M11.8967,15 L50.8967,15 A3.75,3.75 0 0 1 53.3967,17.5 L60.3967,37.2969 L400.8967,37.2969 A2.5,2.5 0 0 1 403.3967,39.7969 L403.3967,250.5 A2.5,2.5 0 0 1 400.8967,253 L11.8967,253 A2.5,2.5 0 0 1 9.3967,250.5 L9.3967,17.5 A2.5,2.5 0 0 1 11.8967,15 " fill="none" style="stroke:#000000;stroke-width:1.5;"/><line style="stroke:#000000;stroke-width:1.5;" x1="9.3967" x2="60.3967" y1="37.2969" y2="37.2969"/><text fill="#000000" font-family="sans-serif" font-size="14" font-weight="bold" lengthAdjust="spacing" textLength="38" x="13.3967" y="29.9951">Logs</text></g><!--cluster Schemas--><g id="cluster_Schemas"><path d="M929.8967,6 L1002.8967,6 A3.75,3.75 0 0 1 1005.3967,8.5 L1012.3967,28.2969 L1939.8967,28.2969 A2.5,2.5 0 0 1 1942.3967,30.7969 L1942.3967,517 A2.5,2.5 0 0 1 1939.8967,519.5 L929.8967,519.5 A2.5,2.5 0 0 1 927.3967,517 L927.3967,8.5 A2.5,2.5 0 0 1 929.8967,6 " fill="none" style="stroke:#000000;stroke-width:1.5;"/><line style="stroke:#000000;stroke-width:1.5;" x1="927.3967" x2="1012.3967" y1="28.2969" y2="28.2969"/><text fill="#000000" font-family="sans-serif" font-size="14" font-weight="bold" lengthAdjust="spacing" textLength="72" x="931.3967" y="20.9951">Schemas</text></g><!--cluster EnumList--><g id="cluster_EnumList"><path d="M1968.8967,38.5 L2044.8967,38.5 A3.75,3.75 0 0 1 2047.3967,41 L2054.3967,60.7969 L2522.8967,60.7969 A2.5,2.5 0 0 1 2525.3967,63.2969 L2525.3967,558 A2.5,2.5 0 0 1 2522.8967,560.5 L1968.8967,560.5 A2.5,2.5 0 0 1 1966.3967,558 L1966.3967,41 A2.5,2.5 0 0 1 1968.8967,38.5 " fill="none" style="stroke:#000000;stroke-width:1.5;"/><line style="stroke:#000000;stroke-width:1.5;" x1="1966.3967" x2="2054.3967" y1="60.7969" y2="60.7969"/><text fill="#000000" font-family="sans-serif" font-size="14" font-weight="bold" lengthAdjust="spacing" textLength="75" x="1970.3967" y="53.4951">EnumList</text></g><!--class pers--><g id="elem_pers"><rect codeLine="6" fill="#F1F1F1" height="253.8594" id="pers" rx="2.5" ry="2.5" style="stroke:#181818;stroke-width:0.5;" width="280" x="468.3967" y="332"/><text fill="#000000" font-family="sans-serif" font-size="14" lengthAdjust="spacing" textLength="49" x="583.8967" y="349.9951">Person</text><line style="stroke:#181818;stroke-width:0.5;" x1="469.3967" x2="747.3967" y1="358.2969" y2="358.2969"/><ellipse cx="479.3967" cy="371.9453" fill="#000000" rx="3" ry="3" style="stroke:#000000;stroke-width:1.0;"/><text fill="#000000" font-family="sans-serif" font-size="14" lengthAdjust="spacing" textLength="95" x="488.3967" y="375.292">_id : ObjectId</text><line style="stroke:#181818;stroke-width:1.0;" x1="469.3967" x2="747.3967" y1="382.5938" y2="382.5938"/><ellipse cx="479.3967" cy="396.2422" fill="#000000" rx="3" ry="3" style="stroke:#000000;stroke-width:1.0;"/><text fill="#000000" font-family="sans-serif" font-size="14" lengthAdjust="spacing" textLength="124" x="488.3967" y="399.5889">lastName : String</text><ellipse cx="479.3967" cy="412.5391" fill="#000000" rx="3" ry="3" style="stroke:#000000;stroke-width:1.0;"/><text fill="#000000" font-family="sans-serif" font-size="14" lengthAdjust="spacing" textLength="124" x="488.3967" y="415.8857">firstName :String</text><ellipse cx="479.3967" cy="428.8359" fill="#000000" rx="3" ry="3" style="stroke:#000000;stroke-width:1.0;"/><text fill="#000000" font-family="sans-serif" font-size="14" lengthAdjust="spacing" textLength="243" x="488.3967" y="432.1826">slug : String (firstName-lastName)</text><ellipse cx="479.3967" cy="445.1328" fill="#000000" rx="3" ry="3" style="stroke:#000000;stroke-width:1.0;"/><text fill="#000000" font-family="sans-serif" font-size="14" lengthAdjust="spacing" textLength="128" x="488.3967" y="448.4795">nickName : String</text><ellipse cx="479.3967" cy="461.4297" fill="#000000" rx="3" ry="3" style="stroke:#000000;stroke-width:1.0;"/><text fill="#000000" font-family="sans-serif" font-size="14" lengthAdjust="spacing" textLength="139" x="488.3967" y="464.7764">description : String</text><ellipse cx="479.3967" cy="477.7266" fill="#000000" rx="3" ry="3" style="stroke:#000000;stroke-width:1.0;"/><text fill="#000000" font-family="sans-serif" font-size="14" lengthAdjust="spacing" textLength="223" x="488.3967" y="481.0732">status : Object (StatusSchema)</text><line style="stroke:#181818;stroke-width:1.0;" x1="469.3967" x2="747.3967" y1="488.375" y2="488.375"/><ellipse cx="479.3967" cy="502.0234" fill="#000000" rx="3" ry="3" style="stroke:#000000;stroke-width:1.0;"/><text fill="#000000" font-family="sans-serif" font-size="14" lengthAdjust="spacing" textLength="96" x="488.3967" y="505.3701">occupations :</text><text fill="#000000" font-family="sans-serif" font-size="14" lengthAdjust="spacing" textLength="168" x="488.3967" y="521.667">{ occupation: ObjectId,</text><text fill="#000000" font-family="sans-serif" font-size="14" lengthAdjust="spacing" textLength="236" x="488.3967" y="537.9639">status : Object (StatusSchema) }</text><line style="stroke:#181818;stroke-width:1.0;" x1="469.3967" x2="747.3967" y1="545.2656" y2="545.2656"/><ellipse cx="479.3967" cy="558.9141" fill="#000000" rx="3" ry="3" style="stroke:#000000;stroke-width:1.0;"/><text fill="#000000" font-family="sans-serif" font-size="14" lengthAdjust="spacing" textLength="254" x="488.3967" y="562.2607">mainImage : Object (MediaSchema)</text><text fill="#000000" font-family="sans-serif" font-size="14" lengthAdjust="spacing" textLength="4" x="488.3967" y="578.5576"> </text></g><!--class taxo--><g id="elem_taxo"><rect codeLine="24" fill="#F1F1F1" height="156.375" id="taxo" rx="2.5" ry="2.5" style="stroke:#181818;stroke-width:0.5;" width="365" x="497.8967" y="700.5"/><text fill="#000000" font-family="sans-serif" font-size="14" lengthAdjust="spacing" textLength="74" x="643.3967" y="718.4951">Taxonomy</text><line style="stroke:#181818;stroke-width:0.5;" x1="498.8967" x2="861.8967" y1="726.7969" y2="726.7969"/><ellipse cx="508.8967" cy="740.4453" fill="#000000" rx="3" ry="3" style="stroke:#000000;stroke-width:1.0;"/><text fill="#000000" font-family="sans-serif" font-size="14" lengthAdjust="spacing" textLength="95" x="517.8967" y="743.792">_id : ObjectId</text><line style="stroke:#181818;stroke-width:1.0;" x1="498.8967" x2="861.8967" y1="751.0938" y2="751.0938"/><ellipse cx="508.8967" cy="764.7422" fill="#000000" rx="3" ry="3" style="stroke:#000000;stroke-width:1.0;"/><text fill="#000000" font-family="sans-serif" font-size="14" lengthAdjust="spacing" textLength="339" x="517.8967" y="768.0889">category : String (TaxonomiesCategoriesEnum)</text><ellipse cx="508.8967" cy="781.0391" fill="#000000" rx="3" ry="3" style="stroke:#000000;stroke-width:1.0;"/><text fill="#000000" font-family="sans-serif" font-size="14" lengthAdjust="spacing" textLength="97" x="517.8967" y="784.3857">name : String</text><ellipse cx="508.8967" cy="797.3359" fill="#000000" rx="3" ry="3" style="stroke:#000000;stroke-width:1.0;"/><text fill="#000000" font-family="sans-serif" font-size="14" lengthAdjust="spacing" textLength="139" x="517.8967" y="800.6826">slug : String (name)</text><ellipse cx="508.8967" cy="813.6328" fill="#000000" rx="3" ry="3" style="stroke:#000000;stroke-width:1.0;"/><text fill="#000000" font-family="sans-serif" font-size="14" lengthAdjust="spacing" textLength="139" x="517.8967" y="816.9795">description : String</text><ellipse cx="508.8967" cy="829.9297" fill="#000000" rx="3" ry="3" style="stroke:#000000;stroke-width:1.0;"/><text fill="#000000" font-family="sans-serif" font-size="14" lengthAdjust="spacing" textLength="104" x="517.8967" y="833.2764">source : String</text><ellipse cx="508.8967" cy="846.2266" fill="#000000" rx="3" ry="3" style="stroke:#000000;stroke-width:1.0;"/><text fill="#000000" font-family="sans-serif" font-size="14" lengthAdjust="spacing" textLength="223" x="517.8967" y="849.5732">status : Object (StatusSchema)</text></g><!--class org--><g id="elem_org"><rect codeLine="35" fill="#F1F1F1" height="253.8594" id="org" rx="2.5" ry="2.5" style="stroke:#181818;stroke-width:0.5;" width="267" x="179.8967" y="652"/><text fill="#000000" font-family="sans-serif" font-size="14" lengthAdjust="spacing" textLength="91" x="267.8967" y="669.9951">Organisation</text><line style="stroke:#181818;stroke-width:0.5;" x1="180.8967" x2="445.8967" y1="678.2969" y2="678.2969"/><ellipse cx="190.8967" cy="691.9453" fill="#000000" rx="3" ry="3" style="stroke:#000000;stroke-width:1.0;"/><text fill="#000000" font-family="sans-serif" font-size="14" lengthAdjust="spacing" textLength="95" x="199.8967" y="695.292">_id : ObjectId</text><line style="stroke:#181818;stroke-width:1.0;" x1="180.8967" x2="445.8967" y1="702.5938" y2="702.5938"/><ellipse cx="190.8967" cy="716.2422" fill="#000000" rx="3" ry="3" style="stroke:#000000;stroke-width:1.0;"/><text fill="#000000" font-family="sans-serif" font-size="14" lengthAdjust="spacing" textLength="97" x="199.8967" y="719.5889">name : String</text><ellipse cx="190.8967" cy="732.5391" fill="#000000" rx="3" ry="3" style="stroke:#000000;stroke-width:1.0;"/><text fill="#000000" font-family="sans-serif" font-size="14" lengthAdjust="spacing" textLength="139" x="199.8967" y="735.8857">slug : String (name)</text><ellipse cx="190.8967" cy="748.8359" fill="#000000" rx="3" ry="3" style="stroke:#000000;stroke-width:1.0;"/><text fill="#000000" font-family="sans-serif" font-size="14" lengthAdjust="spacing" textLength="139" x="199.8967" y="752.1826">description : String</text><ellipse cx="190.8967" cy="765.1328" fill="#000000" rx="3" ry="3" style="stroke:#000000;stroke-width:1.0;"/><text fill="#000000" font-family="sans-serif" font-size="14" lengthAdjust="spacing" textLength="75" x="199.8967" y="768.4795">url : String</text><ellipse cx="190.8967" cy="781.4297" fill="#000000" rx="3" ry="3" style="stroke:#000000;stroke-width:1.0;"/><text fill="#000000" font-family="sans-serif" font-size="14" lengthAdjust="spacing" textLength="151" x="199.8967" y="784.7764">contactPoint : String</text><ellipse cx="190.8967" cy="797.7266" fill="#000000" rx="3" ry="3" style="stroke:#000000;stroke-width:1.0;"/><text fill="#000000" font-family="sans-serif" font-size="14" lengthAdjust="spacing" textLength="153" x="199.8967" y="801.0732">fondationDate : Date</text><ellipse cx="190.8967" cy="814.0234" fill="#000000" rx="3" ry="3" style="stroke:#000000;stroke-width:1.0;"/><text fill="#000000" font-family="sans-serif" font-size="14" lengthAdjust="spacing" textLength="223" x="199.8967" y="817.3701">status : Object (StatusSchema)</text><line style="stroke:#181818;stroke-width:1.0;" x1="180.8967" x2="445.8967" y1="824.6719" y2="824.6719"/><ellipse cx="190.8967" cy="838.3203" fill="#000000" rx="3" ry="3" style="stroke:#000000;stroke-width:1.0;"/><text fill="#000000" font-family="sans-serif" font-size="14" lengthAdjust="spacing" textLength="241" x="199.8967" y="841.667">team : [Object (MemberSchema)]</text><line style="stroke:#181818;stroke-width:1.0;" x1="180.8967" x2="445.8967" y1="848.9688" y2="848.9688"/><ellipse cx="190.8967" cy="862.6172" fill="#000000" rx="3" ry="3" style="stroke:#000000;stroke-width:1.0;"/><text fill="#000000" font-family="sans-serif" font-size="14" lengthAdjust="spacing" textLength="52" x="199.8967" y="865.9639">offers :</text><text fill="#000000" font-family="sans-serif" font-size="14" lengthAdjust="spacing" textLength="124" x="199.8967" y="882.2607">{ offer : ObjectId</text><text fill="#000000" font-family="sans-serif" font-size="14" lengthAdjust="spacing" textLength="232" x="199.8967" y="898.5576">status : Object (StatusSchema)}</text></g><!--class usr--><g id="elem_usr"><rect codeLine="54" fill="#F1F1F1" height="188.9688" id="usr" rx="2.5" ry="2.5" style="stroke:#181818;stroke-width:0.5;" width="154" x="190.3967" y="364"/><text fill="#000000" font-family="sans-serif" font-size="14" lengthAdjust="spacing" textLength="31" x="251.8967" y="381.9951">User</text><line style="stroke:#181818;stroke-width:0.5;" x1="191.3967" x2="343.3967" y1="390.2969" y2="390.2969"/><ellipse cx="201.3967" cy="403.9453" fill="#000000" rx="3" ry="3" style="stroke:#000000;stroke-width:1.0;"/><text fill="#000000" font-family="sans-serif" font-size="14" lengthAdjust="spacing" textLength="95" x="210.3967" y="407.292">_id : ObjectId</text><line style="stroke:#181818;stroke-width:1.0;" x1="191.3967" x2="343.3967" y1="414.5938" y2="414.5938"/><ellipse cx="201.3967" cy="428.2422" fill="#000000" rx="3" ry="3" style="stroke:#000000;stroke-width:1.0;"/><text fill="#000000" font-family="sans-serif" font-size="14" lengthAdjust="spacing" textLength="127" x="210.3967" y="431.5889">username : String</text><ellipse cx="201.3967" cy="444.5391" fill="#000000" rx="3" ry="3" style="stroke:#000000;stroke-width:1.0;"/><text fill="#000000" font-family="sans-serif" font-size="14" lengthAdjust="spacing" textLength="96" x="210.3967" y="447.8857">email : String</text><ellipse cx="201.3967" cy="460.8359" fill="#000000" rx="3" ry="3" style="stroke:#000000;stroke-width:1.0;"/><text fill="#000000" font-family="sans-serif" font-size="14" lengthAdjust="spacing" textLength="124" x="210.3967" y="464.1826">password : String</text><ellipse cx="201.3967" cy="477.1328" fill="#000000" rx="3" ry="3" style="stroke:#000000;stroke-width:1.0;"/><text fill="#000000" font-family="sans-serif" font-size="14" lengthAdjust="spacing" textLength="102" x="210.3967" y="480.4795">avatar : String</text><ellipse cx="201.3967" cy="493.4297" fill="#000000" rx="3" ry="3" style="stroke:#000000;stroke-width:1.0;"/><text fill="#000000" font-family="sans-serif" font-size="14" lengthAdjust="spacing" textLength="97" x="210.3967" y="496.7764">name : String</text><ellipse cx="201.3967" cy="509.7266" fill="#000000" rx="3" ry="3" style="stroke:#000000;stroke-width:1.0;"/><text fill="#000000" font-family="sans-serif" font-size="14" lengthAdjust="spacing" textLength="128" x="210.3967" y="513.0732">firstName : String</text><ellipse cx="201.3967" cy="526.0234" fill="#000000" rx="3" ry="3" style="stroke:#000000;stroke-width:1.0;"/><text fill="#000000" font-family="sans-serif" font-size="14" lengthAdjust="spacing" textLength="124" x="210.3967" y="529.3701">lastName : String</text><ellipse cx="201.3967" cy="542.3203" fill="#000000" rx="3" ry="3" style="stroke:#000000;stroke-width:1.0;"/><text fill="#000000" font-family="sans-serif" font-size="14" lengthAdjust="spacing" textLength="85" x="210.3967" y="545.667">role : String</text></g><!--class usrhst--><g id="elem_usrhst"><rect codeLine="68" fill="#F1F1F1" height="180.6719" id="usrhst" rx="2.5" ry="2.5" style="stroke:#181818;stroke-width:0.5;" width="345" x="33.8967" y="54"/><text fill="#000000" font-family="sans-serif" font-size="14" lengthAdjust="spacing" textLength="82" x="165.3967" y="71.9951">UserHistory</text><line style="stroke:#181818;stroke-width:0.5;" x1="34.8967" x2="377.8967" y1="80.2969" y2="80.2969"/><ellipse cx="44.8967" cy="93.9453" fill="#000000" rx="3" ry="3" style="stroke:#000000;stroke-width:1.0;"/><text fill="#000000" font-family="sans-serif" font-size="14" lengthAdjust="spacing" textLength="95" x="53.8967" y="97.292">_id : ObjectId</text><line style="stroke:#181818;stroke-width:1.0;" x1="34.8967" x2="377.8967" y1="104.5938" y2="104.5938"/><ellipse cx="44.8967" cy="118.2422" fill="#000000" rx="3" ry="3" style="stroke:#000000;stroke-width:1.0;"/><text fill="#000000" font-family="sans-serif" font-size="14" lengthAdjust="spacing" textLength="105" x="53.8967" y="121.5889">user : ObjectId</text><line style="stroke:#181818;stroke-width:1.0;" x1="34.8967" x2="377.8967" y1="128.8906" y2="128.8906"/><ellipse cx="44.8967" cy="142.5391" fill="#000000" rx="3" ry="3" style="stroke:#000000;stroke-width:1.0;"/><text fill="#000000" font-family="sans-serif" font-size="14" lengthAdjust="spacing" textLength="128" x="53.8967" y="145.8857">ipAddress : String</text><ellipse cx="44.8967" cy="158.8359" fill="#000000" rx="3" ry="3" style="stroke:#000000;stroke-width:1.0;"/><text fill="#000000" font-family="sans-serif" font-size="14" lengthAdjust="spacing" textLength="125" x="53.8967" y="162.1826">modifDate : Date</text><ellipse cx="44.8967" cy="175.1328" fill="#000000" rx="3" ry="3" style="stroke:#000000;stroke-width:1.0;"/><text fill="#000000" font-family="sans-serif" font-size="14" lengthAdjust="spacing" textLength="319" x="53.8967" y="178.4795">action : String ["create", "update", "delete"]</text><ellipse cx="44.8967" cy="191.4297" fill="#000000" rx="3" ry="3" style="stroke:#000000;stroke-width:1.0;"/><text fill="#000000" font-family="sans-serif" font-size="14" lengthAdjust="spacing" textLength="174" x="53.8967" y="194.7764">entityCollection : String</text><ellipse cx="44.8967" cy="207.7266" fill="#000000" rx="3" ry="3" style="stroke:#000000;stroke-width:1.0;"/><text fill="#000000" font-family="sans-serif" font-size="14" lengthAdjust="spacing" textLength="183" x="53.8967" y="211.0732">modifiedEntity : ObjectId</text><ellipse cx="44.8967" cy="224.0234" fill="#000000" rx="3" ry="3" style="stroke:#000000;stroke-width:1.0;"/><text fill="#000000" font-family="sans-serif" font-size="14" lengthAdjust="spacing" textLength="101" x="53.8967" y="227.3701">fields : Object</text></g><!--class Status - StatusSchema--><g id="elem_Status - StatusSchema"><rect codeLine="83" fill="#F1F1F1" height="107.4844" id="Status - StatusSchema" rx="2.5" ry="2.5" style="stroke:#181818;stroke-width:0.5;" width="439" x="943.8967" y="90"/><text fill="#000000" font-family="sans-serif" font-size="14" lengthAdjust="spacing" textLength="163" x="1081.8967" y="107.9951">Status - StatusSchema</text><line style="stroke:#181818;stroke-width:0.5;" x1="944.8967" x2="1381.8967" y1="116.2969" y2="116.2969"/><ellipse cx="954.8967" cy="129.9453" fill="#000000" rx="3" ry="3" style="stroke:#000000;stroke-width:1.0;"/><text fill="#000000" font-family="sans-serif" font-size="14" lengthAdjust="spacing" textLength="413" x="963.8967" y="133.292">state : ["accepted", "rejected", "deprecated", "pending"]</text><ellipse cx="954.8967" cy="146.2422" fill="#000000" rx="3" ry="3" style="stroke:#000000;stroke-width:1.0;"/><text fill="#000000" font-family="sans-serif" font-size="14" lengthAdjust="spacing" textLength="166" x="963.8967" y="149.5889">requestedBy : ObjectId</text><ellipse cx="954.8967" cy="162.5391" fill="#000000" rx="3" ry="3" style="stroke:#000000;stroke-width:1.0;"/><text fill="#000000" font-family="sans-serif" font-size="14" lengthAdjust="spacing" textLength="181" x="963.8967" y="165.8857">lastModifiedBy : ObjectId</text><ellipse cx="954.8967" cy="178.8359" fill="#000000" rx="3" ry="3" style="stroke:#000000;stroke-width:1.0;"/><text fill="#000000" font-family="sans-serif" font-size="14" lengthAdjust="spacing" textLength="120" x="963.8967" y="182.1826">message : String</text><line style="stroke:#181818;stroke-width:0.5;" x1="944.8967" x2="1381.8967" y1="189.4844" y2="189.4844"/></g><!--class Media - MediaSchema--><g id="elem_Media - MediaSchema"><rect codeLine="90" fill="#F1F1F1" height="205.2656" id="Media - MediaSchema" rx="2.5" ry="2.5" style="stroke:#181818;stroke-width:0.5;" width="508" x="1418.3967" y="41"/><text fill="#000000" font-family="sans-serif" font-size="14" lengthAdjust="spacing" textLength="155" x="1594.8967" y="58.9951">Media - MediaSchema</text><line style="stroke:#181818;stroke-width:0.5;" x1="1419.3967" x2="1925.3967" y1="67.2969" y2="67.2969"/><ellipse cx="1429.3967" cy="80.9453" fill="#000000" rx="3" ry="3" style="stroke:#000000;stroke-width:1.0;"/><text fill="#000000" font-family="sans-serif" font-size="14" lengthAdjust="spacing" textLength="88" x="1438.3967" y="84.292">title : String</text><ellipse cx="1429.3967" cy="97.2422" fill="#000000" rx="3" ry="3" style="stroke:#000000;stroke-width:1.0;"/><text fill="#000000" font-family="sans-serif" font-size="14" lengthAdjust="spacing" textLength="76" x="1438.3967" y="100.5889">alt : String</text><ellipse cx="1429.3967" cy="113.5391" fill="#000000" rx="3" ry="3" style="stroke:#000000;stroke-width:1.0;"/><text fill="#000000" font-family="sans-serif" font-size="14" lengthAdjust="spacing" textLength="139" x="1438.3967" y="116.8857">description : String</text><ellipse cx="1429.3967" cy="129.8359" fill="#000000" rx="3" ry="3" style="stroke:#000000;stroke-width:1.0;"/><text fill="#000000" font-family="sans-serif" font-size="14" lengthAdjust="spacing" textLength="91" x="1438.3967" y="133.1826">path : String</text><ellipse cx="1429.3967" cy="146.1328" fill="#000000" rx="3" ry="3" style="stroke:#000000;stroke-width:1.0;"/><text fill="#000000" font-family="sans-serif" font-size="14" lengthAdjust="spacing" textLength="128" x="1438.3967" y="149.4795">extension : String</text><line style="stroke:#181818;stroke-width:0.5;" x1="1419.3967" x2="1925.3967" y1="156.7813" y2="156.7813"/><ellipse cx="1429.3967" cy="170.4297" fill="#000000" rx="3" ry="3" style="stroke:#000000;stroke-width:1.0;"/><text fill="#000000" font-family="sans-serif" font-size="14" lengthAdjust="spacing" textLength="199" x="1438.3967" y="173.7764">licence : String (licenceList)</text><ellipse cx="1429.3967" cy="186.7266" fill="#000000" rx="3" ry="3" style="stroke:#000000;stroke-width:1.0;"/><text fill="#000000" font-family="sans-serif" font-size="14" lengthAdjust="spacing" textLength="215" x="1438.3967" y="190.0732">fileType : String (fileTypeList)</text><text fill="#000000" font-family="sans-serif" font-size="14" lengthAdjust="spacing" textLength="482" x="1438.3967" y="206.3701">(...fileExtensionImage, ...fileExtensionVideo, ...fileExtensionSound)</text><ellipse cx="1429.3967" cy="219.3203" fill="#000000" rx="3" ry="3" style="stroke:#000000;stroke-width:1.0;"/><text fill="#000000" font-family="sans-serif" font-size="14" lengthAdjust="spacing" textLength="130" x="1438.3967" y="222.667">slug : String (title)</text><ellipse cx="1429.3967" cy="235.6172" fill="#000000" rx="3" ry="3" style="stroke:#000000;stroke-width:1.0;"/><text fill="#000000" font-family="sans-serif" font-size="14" lengthAdjust="spacing" textLength="223" x="1438.3967" y="238.9639">status : Object (StatusSchema)</text></g><!--class Member - MemberSchema--><g id="elem_Member - MemberSchema"><rect codeLine="103" fill="#F1F1F1" height="91.1875" id="Member - MemberSchema" rx="2.5" ry="2.5" style="stroke:#181818;stroke-width:0.5;" width="249" x="1038.8967" y="412.5"/><text fill="#000000" font-family="sans-serif" font-size="14" lengthAdjust="spacing" textLength="191" x="1067.8967" y="430.4951">Member - MemberSchema</text><line style="stroke:#181818;stroke-width:0.5;" x1="1039.8967" x2="1286.8967" y1="438.7969" y2="438.7969"/><ellipse cx="1049.8967" cy="452.4453" fill="#000000" rx="3" ry="3" style="stroke:#000000;stroke-width:1.0;"/><text fill="#000000" font-family="sans-serif" font-size="14" lengthAdjust="spacing" textLength="137" x="1058.8967" y="455.792">member : ObjectId</text><line style="stroke:#181818;stroke-width:0.5;" x1="1039.8967" x2="1286.8967" y1="463.0938" y2="463.0938"/><ellipse cx="1049.8967" cy="476.7422" fill="#000000" rx="3" ry="3" style="stroke:#000000;stroke-width:1.0;"/><text fill="#000000" font-family="sans-serif" font-size="14" lengthAdjust="spacing" textLength="193" x="1058.8967" y="480.0889">role : Object (RoleSchema)</text><ellipse cx="1049.8967" cy="493.0391" fill="#000000" rx="3" ry="3" style="stroke:#000000;stroke-width:1.0;"/><text fill="#000000" font-family="sans-serif" font-size="14" lengthAdjust="spacing" textLength="223" x="1058.8967" y="496.3857">status : Object (StatusSchema)</text></g><!--class Role - RoleSchema--><g id="elem_Role - RoleSchema"><rect codeLine="109" fill="#F1F1F1" height="74.8906" id="Role - RoleSchema" rx="2.5" ry="2.5" style="stroke:#181818;stroke-width:0.5;" width="141" x="1322.8967" y="420.5"/><text fill="#000000" font-family="sans-serif" font-size="14" lengthAdjust="spacing" textLength="135" x="1325.8967" y="438.4951">Role - RoleSchema</text><line style="stroke:#181818;stroke-width:0.5;" x1="1323.8967" x2="1462.8967" y1="446.7969" y2="446.7969"/><ellipse cx="1333.8967" cy="460.4453" fill="#000000" rx="3" ry="3" style="stroke:#000000;stroke-width:1.0;"/><text fill="#000000" font-family="sans-serif" font-size="14" lengthAdjust="spacing" textLength="99" x="1342.8967" y="463.792">group : String</text><ellipse cx="1333.8967" cy="476.7422" fill="#000000" rx="3" ry="3" style="stroke:#000000;stroke-width:1.0;"/><text fill="#000000" font-family="sans-serif" font-size="14" lengthAdjust="spacing" textLength="88" x="1342.8967" y="480.0889">title : String</text><line style="stroke:#181818;stroke-width:0.5;" x1="1323.8967" x2="1462.8967" y1="487.3906" y2="487.3906"/></g><!--class TaxonomiesCategoriesEnum--><g id="elem_TaxonomiesCategoriesEnum"><rect codeLine="117" fill="#F1F1F1" height="107.4844" id="TaxonomiesCategoriesEnum" rx="2.5" ry="2.5" style="stroke:#181818;stroke-width:0.5;" width="221" x="1982.8967" y="90"/><text fill="#000000" font-family="sans-serif" font-size="14" lengthAdjust="spacing" textLength="204" x="1991.3967" y="107.9951">TaxonomiesCategoriesEnum</text><line style="stroke:#181818;stroke-width:0.5;" x1="1983.8967" x2="2202.8967" y1="116.2969" y2="116.2969"/><text fill="#000000" font-family="sans-serif" font-size="14" lengthAdjust="spacing" textLength="209" x="1988.8967" y="133.292">Occupations = "occupations"</text><text fill="#000000" font-family="sans-serif" font-size="14" lengthAdjust="spacing" textLength="155" x="1988.8967" y="149.5889">Domains = "domains"</text><text fill="#000000" font-family="sans-serif" font-size="14" lengthAdjust="spacing" textLength="149" x="1988.8967" y="165.8857">Abilities = "abilities"</text><text fill="#000000" font-family="sans-serif" font-size="14" lengthAdjust="spacing" textLength="105" x="1988.8967" y="182.1826">Skills = "skills"</text><line style="stroke:#181818;stroke-width:0.5;" x1="1983.8967" x2="2202.8967" y1="189.4844" y2="189.4844"/></g><!--class fileTypeList--><g id="elem_fileTypeList"><rect codeLine="124" fill="#F1F1F1" height="91.1875" id="fileTypeList" rx="2.5" ry="2.5" style="stroke:#181818;stroke-width:0.5;" width="91" x="2238.8967" y="98"/><text fill="#000000" font-family="sans-serif" font-size="14" lengthAdjust="spacing" textLength="85" x="2241.8967" y="115.9951">fileTypeList</text><line style="stroke:#181818;stroke-width:0.5;" x1="2239.8967" x2="2328.8967" y1="124.2969" y2="124.2969"/><text fill="#000000" font-family="sans-serif" font-size="14" lengthAdjust="spacing" textLength="44" x="2244.8967" y="141.292">image</text><text fill="#000000" font-family="sans-serif" font-size="14" lengthAdjust="spacing" textLength="39" x="2244.8967" y="157.5889">video</text><text fill="#000000" font-family="sans-serif" font-size="14" lengthAdjust="spacing" textLength="42" x="2244.8967" y="173.8857">sound</text><line style="stroke:#181818;stroke-width:0.5;" x1="2239.8967" x2="2328.8967" y1="181.1875" y2="181.1875"/></g><!--class fileExtensionImage--><g id="elem_fileExtensionImage"><rect codeLine="130" fill="#F1F1F1" height="140.0781" id="fileExtensionImage" rx="2.5" ry="2.5" style="stroke:#181818;stroke-width:0.5;" width="144" x="2365.3967" y="73.5"/><text fill="#000000" font-family="sans-serif" font-size="14" lengthAdjust="spacing" textLength="138" x="2368.3967" y="91.4951">fileExtensionImage</text><line style="stroke:#181818;stroke-width:0.5;" x1="2366.3967" x2="2508.3967" y1="99.7969" y2="99.7969"/><text fill="#000000" font-family="sans-serif" font-size="14" lengthAdjust="spacing" textLength="28" x="2371.3967" y="116.792">png</text><text fill="#000000" font-family="sans-serif" font-size="14" lengthAdjust="spacing" textLength="23" x="2371.3967" y="133.0889">jpg</text><text fill="#000000" font-family="sans-serif" font-size="14" lengthAdjust="spacing" textLength="32" x="2371.3967" y="149.3857">jpeg</text><text fill="#000000" font-family="sans-serif" font-size="14" lengthAdjust="spacing" textLength="19" x="2371.3967" y="165.6826">gif</text><text fill="#000000" font-family="sans-serif" font-size="14" lengthAdjust="spacing" textLength="24" x="2371.3967" y="181.9795">svg</text><text fill="#000000" font-family="sans-serif" font-size="14" lengthAdjust="spacing" textLength="40" x="2371.3967" y="198.2764">webp</text><line style="stroke:#181818;stroke-width:0.5;" x1="2366.3967" x2="2508.3967" y1="205.5781" y2="205.5781"/></g><!--class fileExtensionVideo--><g id="elem_fileExtensionVideo"><rect codeLine="139" fill="#F1F1F1" height="58.5938" id="fileExtensionVideo" rx="2.5" ry="2.5" style="stroke:#181818;stroke-width:0.5;" width="141" x="1995.8967" y="428.5"/><text fill="#000000" font-family="sans-serif" font-size="14" lengthAdjust="spacing" textLength="135" x="1998.8967" y="446.4951">fileExtensionVideo</text><line style="stroke:#181818;stroke-width:0.5;" x1="1996.8967" x2="2135.8967" y1="454.7969" y2="454.7969"/><text fill="#000000" font-family="sans-serif" font-size="14" lengthAdjust="spacing" textLength="32" x="2001.8967" y="471.792">mp4</text><line style="stroke:#181818;stroke-width:0.5;" x1="1996.8967" x2="2135.8967" y1="479.0938" y2="479.0938"/></g><!--class fileExtensionSound--><g id="elem_fileExtensionSound"><rect codeLine="143" fill="#F1F1F1" height="74.8906" id="fileExtensionSound" rx="2.5" ry="2.5" style="stroke:#181818;stroke-width:0.5;" width="144" x="2172.3967" y="420.5"/><text fill="#000000" font-family="sans-serif" font-size="14" lengthAdjust="spacing" textLength="138" x="2175.3967" y="438.4951">fileExtensionSound</text><line style="stroke:#181818;stroke-width:0.5;" x1="2173.3967" x2="2315.3967" y1="446.7969" y2="446.7969"/><text fill="#000000" font-family="sans-serif" font-size="14" lengthAdjust="spacing" textLength="27" x="2178.3967" y="463.792">wav</text><text fill="#000000" font-family="sans-serif" font-size="14" lengthAdjust="spacing" textLength="33" x="2178.3967" y="480.0889">mp3</text><line style="stroke:#181818;stroke-width:0.5;" x1="2173.3967" x2="2315.3967" y1="487.3906" y2="487.3906"/></g><!--class licenceList--><g id="elem_licenceList"><rect codeLine="148" fill="#F1F1F1" height="172.6719" id="licenceList" rx="2.5" ry="2.5" style="stroke:#181818;stroke-width:0.5;" width="157" x="2351.8967" y="371.5"/><text fill="#000000" font-family="sans-serif" font-size="14" lengthAdjust="spacing" textLength="77" x="2391.8967" y="389.4951">licenceList</text><line style="stroke:#181818;stroke-width:0.5;" x1="2352.8967" x2="2507.8967" y1="397.7969" y2="397.7969"/><text fill="#000000" font-family="sans-serif" font-size="14" lengthAdjust="spacing" textLength="42" x="2357.8967" y="414.792">CC By</text><text fill="#000000" font-family="sans-serif" font-size="14" lengthAdjust="spacing" textLength="67" x="2357.8967" y="431.0889">CC By-SA</text><text fill="#000000" font-family="sans-serif" font-size="14" lengthAdjust="spacing" textLength="69" x="2357.8967" y="447.3857">CC By-ND</text><text fill="#000000" font-family="sans-serif" font-size="14" lengthAdjust="spacing" textLength="68" x="2357.8967" y="463.6826">CC By-NC</text><text fill="#000000" font-family="sans-serif" font-size="14" lengthAdjust="spacing" textLength="93" x="2357.8967" y="479.9795">CC By-NC-SA</text><text fill="#000000" font-family="sans-serif" font-size="14" lengthAdjust="spacing" textLength="95" x="2357.8967" y="496.2764">CC By-NC-ND</text><text fill="#000000" font-family="sans-serif" font-size="14" lengthAdjust="spacing" textLength="126" x="2357.8967" y="512.5732">Copyright to user</text><line style="stroke:#181818;stroke-width:0.5;" x1="2352.8967" x2="2507.8967" y1="519.875" y2="519.875"/><text fill="#000000" font-family="sans-serif" font-size="14" lengthAdjust="spacing" textLength="145" x="2357.8967" y="536.8701">Public Domain (CC0)</text></g><!--reverse link pers to taxo--><g id="link_pers_taxo"><path codeLine="161" d="M762.2057,501.781 C783.9387,513.48 767.3757,559.424 748.3967,588 C681.3827,688.897 566.0297,596.017 498.3967,696.5 C487.8467,712.174 478.5027,739 497.3967,739 " fill="none" id="pers-backto-taxo" style="stroke:#181818;stroke-width:1.0;"/><polygon fill="none" points="749.3967,499,754.4118,504.1815,761.1237,501.545,756.1085,496.3635,749.3967,499" style="stroke:#181818;stroke-width:1.0;"/></g><!--reverse link org to taxo--><g id="link_org_taxo"><path codeLine="162" d="M448.3967,860 C506.4167,860 439.3767,739 497.3967,739 " fill="none" id="org-backto-taxo" style="stroke:#181818;stroke-width:1.0;"/><polygon fill="none" points="448.3967,860,454.3967,864,460.3967,860,454.3967,856,448.3967,860" style="stroke:#181818;stroke-width:1.0;"/></g><!--reverse link usrhst to usr--><g id="link_usrhst_usr"><path codeLine="163" d="M393.3577,118.356 C428.5757,130.053 402.7127,194.43 379.3967,237 C331.2527,324.901 239.2207,272.475 190.3967,360 C181.3007,376.306 170.7247,402 189.3967,402 " fill="none" id="usrhst-backto-usr" style="stroke:#181818;stroke-width:1.0;"/><polygon fill="#181818" points="380.3967,116.5,385.769,121.3102,392.2755,118.2011,386.9031,113.391,380.3967,116.5" style="stroke:#181818;stroke-width:1.0;"/></g><!--link Entity to usrhst--><g id="link_Entity_usrhst"><path codeLine="164" d="M139.3276,448.244 C138.6498,447.4996 137.9344,446.7119 137.1833,445.8827 C131.1744,439.2489 122.8821,429.9547 113.3126,418.849 C94.1735,396.6377 69.9253,367.1802 48.6168,337.2676 C6,277.4425 21.4444,206.569 21.4444,206.569 " fill="none" id="Entity-usrhst" style="stroke:#181818;stroke-width:1.0;"/><polygon fill="#181818" points="139.3276,448.244,136.2262,438.8962,135.9614,444.5469,130.3108,444.2821,139.3276,448.244" style="stroke:#181818;stroke-width:1.0;"/><polygon fill="#181818" points="33.3967,205.5,27.0642,202.0504,21.4444,206.569,27.7769,210.0186,33.3967,205.5" style="stroke:#181818;stroke-width:1.0;"/></g><!--reverse link pers to org--><g id="link_pers_org"><path codeLine="165" d="M457.4327,378.486 C428.2567,441.645 496.0677,836 448.3967,836 " fill="none" id="pers-backto-org" style="stroke:#181818;stroke-width:1.0;"/><polygon fill="none" points="467.3967,370,460.2352,370.8448,458.2607,377.7804,465.4221,376.9355,467.3967,370" style="stroke:#181818;stroke-width:1.0;"/></g><!--SRC=[hLTDRoCt3BtxLmY-n4upGO7sPA05iaw01aWsGRsxbo0ev14zraOZJIMDlSR2_xsKD1yQsUiwHND8A9AYoAStf7Bn9CcNnLmnk2AL1cF8ZR3a9t9Bh29chRPEk-6m9Mf5Aa6b_VpuC1gDrfm1oRdE1Omgch_H0iYTjDpkoFSH8H34yJDee-IOK4Cg5BsDaCk_E2CpyhJy2hczPrwNPS4agB4VQGbeNrZDPH7KAwvRVQmseYuwJpBflB8sp3JuIPw_7OdAmEIQLvOhcLYCfROsNP9ail2AHRw6aau76QiyholgOZX_htC_tqblw6kzwkodJo3xmHabvVA-T23t_e_0E8qJmb_xKGJ-9_fDILNkFFmM5sV0drCBXTAx2DGc30Sp3qQKxcHTjj0UmfhSYkpluGJWgjOvlFSM1lK-wO9ARZpYlcQbYpDA_fyAgBL8DBcIbkRsMN5fKpehoNoUjmWfsjoVTnFF0YtHyQKdHBa4tNY-3ZcwMhdFRqXFfqj1-NTcxWFi4UwV3MYFTstq6NZNw7u4SupDKmGhQinMQPQewOPQgXEbFDaq1leVz1Yjn42r7-sxtlQW2ZFeRAxeFxYn-AsqjQ-DFRFy7zbuTSEOxyB3p4h5-Eg0AiYjc8RaPPnhGEluYephYZKI0m4elJOe-_JdIWZ8Zv3O7yI1DQqyIHC11S5wPZGOTI05XWnn2jmX6Ob9D6vnSbHpHRsCQPv3PO6vb3Muw45cW0F8TIM_ga0oJBQjHiFVDHYqVJZCrLtoOrFE4NE9A8T-6jrtbBVlhfXsr6MxhD53fEIXmfuzN70eh5DAyXnarF_8fD4y8CUcBVe2Fkqg60oye8gyu9i5QGuEdLnVNpllkzRinyaLITLVSB2hG_L2rP9DZtP7ZyRqlpJiqB0yo7tdwb0kWpMzkEOhRG_u4vTnStnd2cux9j17wOuljAghv9OEBdv0VpSKtKLWXCCfV30-suEUekV3RsGSlIR6tdwhtF3tDXR4eBzPSi4j1dCMsYw2RV76XV06uwLnMdRCcpOHGhYZH2Dl70yQsRZBFnPYIAO-KDK0HiZNgfUW5Gk-QYDlMjqMbjN98pmn-oFAwjUJxfwmlVkMRhgDlwGReq-jtV5SBr7RW4ycy_dFWLxpEVcmwwLiSHCjFjx6Y_bWaNZEEsTLxJGlrjOzkDriQ5breK447epSqtasYz-PAjEPVzBDPZXgHlZGGNkOyOafpANPp8-ToonpWsfeINh-PIQotvktV7EocsOAj_fZtAi3ixkN6sxu4Zy7mUMRmLQaT4cn2LtuXtxsWlyXC92lp6zBjThdyGy0]--></g></svg>